<?xml version="1.0" standalone="no"?>
<!DOCTYPE svg PUBLIC "-//W3C//DTD SVG 20010904//EN"
 "http://www.w3.org/TR/2001/REC-SVG-20010904/DTD/svg10.dtd">
<svg version="1.0" xmlns="http://www.w3.org/2000/svg"
 width="460.000000pt" height="460.000000pt" viewBox="0 0 460.000000 460.000000"
 preserveAspectRatio="xMidYMid meet">

<g transform="translate(0.000000,460.000000) scale(0.100000,-0.100000)"
fill="#000000" stroke="none">
<path d="M2216 4584 c-33 -8 -64 -18 -70 -23 -9 -7 -175 -103 -621 -360 -44
-25 -87 -50 -96 -56 -9 -5 -40 -23 -70 -39 -29 -15 -112 -63 -183 -106 -118
-69 -182 -107 -326 -188 -25 -14 -78 -45 -118 -69 -41 -24 -75 -43 -77 -43 -1
0 -42 -24 -91 -53 -49 -29 -102 -59 -117 -67 -80 -41 -150 -127 -173 -215 -21
-78 -20 -2070 1 -2141 27 -90 101 -176 190 -219 21 -10 189 -107 300 -172 33
-20 78 -46 100 -58 50 -28 220 -126 300 -173 33 -19 75 -43 93 -53 18 -9 38
-22 45 -27 7 -5 32 -21 57 -34 81 -45 123 -69 250 -143 69 -40 141 -82 160
-93 19 -11 80 -45 135 -77 253 -146 273 -156 338 -168 96 -16 164 4 317 96 69
41 150 88 179 103 30 16 61 34 70 39 9 6 52 31 96 56 44 26 123 71 175 101 52
30 140 81 195 113 55 32 125 72 155 90 123 72 200 115 205 115 4 0 21 11 38
24 18 14 43 29 57 35 14 6 54 29 90 50 56 34 106 63 289 167 81 45 130 86 160
131 64 96 61 46 61 1172 l0 1026 -25 70 c-20 57 -34 80 -78 120 -29 28 -67 57
-83 66 -29 14 -203 114 -317 181 -34 20 -78 45 -97 56 -38 20 -97 55 -255 147
-55 32 -120 69 -145 83 -25 13 -49 28 -55 32 -5 4 -28 18 -50 30 -22 13 -60
34 -84 48 -24 13 -104 60 -178 103 -75 43 -136 79 -138 79 -1 0 -91 51 -199
114 -108 63 -211 119 -229 125 -59 18 -121 20 -181 5z m151 -765 l63 -196 103
-17 c99 -18 282 -76 321 -102 17 -12 27 -7 85 44 36 31 71 64 78 72 11 13 12
11 13 -10 0 -14 -4 -41 -9 -60 -5 -19 -12 -55 -15 -80 l-6 -45 67 -45 c89 -60
267 -241 323 -328 25 -40 51 -69 58 -67 31 11 173 36 181 33 6 -1 -21 -39 -59
-82 -58 -67 -67 -83 -59 -99 26 -47 78 -219 89 -292 7 -44 16 -87 21 -95 8
-17 9 -17 237 -91 150 -48 182 -64 150 -73 -131 -39 -373 -123 -383 -132 -6
-7 -17 -52 -24 -100 -19 -124 -67 -253 -165 -440 -34 -65 -106 -75 -155 -23
-30 33 -26 59 24 149 88 160 145 382 145 563 -1 200 -82 478 -176 604 -13 17
-24 34 -24 38 0 13 -110 143 -166 195 -217 205 -494 314 -794 313 -204 -1
-357 -40 -558 -143 -83 -43 -84 -43 -118 -27 -63 31 -69 108 -11 151 89 66
291 144 448 171 l106 19 63 198 c35 109 68 197 73 195 6 -2 39 -91 74 -198z
m-1051 -511 c41 -29 83 -57 92 -63 9 -5 31 -20 49 -32 17 -13 35 -23 38 -23 4
0 24 -13 45 -30 21 -16 42 -30 46 -30 5 0 25 -14 44 -30 19 -16 39 -30 44 -30
4 0 25 -12 45 -27 20 -16 44 -32 53 -38 10 -5 177 -116 371 -245 l355 -234 93
-143 c52 -79 104 -158 117 -176 13 -18 82 -122 154 -232 72 -110 188 -285 257
-390 69 -104 131 -197 136 -206 6 -9 27 -42 48 -73 41 -63 45 -76 20 -76 -19
0 -27 5 -153 90 -41 27 -82 54 -90 60 -8 5 -33 22 -55 37 -22 14 -245 163
-495 331 -250 167 -463 312 -474 321 -14 13 -120 163 -181 258 -5 9 -27 41
-48 72 -20 31 -57 85 -80 121 -63 95 -59 89 -222 330 -82 122 -154 229 -160
239 -5 9 -32 50 -60 90 -27 40 -54 80 -60 89 -5 9 -18 28 -27 41 -50 68 0 67
98 -1z m-55 -325 c41 -24 48 -70 19 -125 -214 -408 -187 -853 74 -1234 22 -32
71 -89 110 -128 215 -215 464 -329 772 -352 172 -13 412 38 578 123 54 27 75
33 102 28 56 -10 80 -69 53 -128 -26 -56 -378 -187 -505 -187 -31 0 -37 -13
-101 -213 -56 -178 -67 -205 -75 -191 -3 5 -33 95 -68 199 -34 105 -63 191
-65 193 -2 2 -57 14 -122 27 -124 25 -261 70 -328 110 l-41 23 -74 -68 c-41
-38 -78 -69 -81 -70 -3 0 2 42 12 93 10 50 18 97 18 104 1 6 -23 30 -51 53
-113 89 -227 208 -287 300 l-43 66 -86 -18 c-135 -27 -135 -27 -66 45 92 95
89 80 45 193 -21 54 -48 152 -61 216 l-23 117 -71 25 c-60 21 -273 90 -313
102 -34 9 2 26 184 86 l198 64 26 125 c37 178 122 389 172 424 28 20 62 19 98
-2z"/>
</g>
</svg>
