<svg version="1.2" xmlns="http://www.w3.org/2000/svg" viewBox="0 0 250 250" width="250" height="250">
	<title>image</title>
	<style>
		.s0 { fill: #4b5fab } 
		.s1 { fill: #f6a81c } 
	</style>
	<g id="Background">
		<path id="Path 0" class="s0" d="m123 69.8c-18.2 18.4-20.6 21.1-20.7 24.2-0.2 3.2 0.7 4.5 12.5 16.1l12.7 12.7c8.5-4.5 13.9-6.3 17.5-7 4.9-0.8 8.1-0.8 13 0.1 3.6 0.7 8.8 2.4 11.5 3.7 2.8 1.4 6.3 3.7 7.8 5.2l2.8 2.7c20.1-20.3 20.8-21.3 20.9-25 0-3.9-0.6-4.6-24.8-28.7-24-24-24.8-24.8-28.7-24.8-3.8 0-4.6 0.7-24.5 20.8zm-53.2 72c-14.2 14.1-26 26.7-26.3 28-0.3 1.2 0.1 3.4 0.9 5 0.8 1.5 7.7 8.8 15.3 16.3 7.6 7.5 14.8 14.2 16.1 14.8 1.2 0.6 3.2 0.8 4.5 0.5 1.2-0.3 9.5-7.9 18.3-16.7l16.2-16.2c-3.5-10.5-3.9-13.9-3.6-20 0.3-6.4 1-9.4 3.7-15l3.2-7c-14.4-14.3-16.1-15.4-19.1-15.5-3.2 0-5.3 1.9-29.2 25.8z"/>
		<path id="Path 1" fill-rule="evenodd" class="s1" d="m175.6 1c2.5 0 8 5.1 38.1 35.3 30.8 30.8 35.3 35.6 35.3 38.2-0.1 2.5-2 5-11 14-9.8 9.9-11.3 11-14.5 11-3.3 0-5.7-2.2-38.2-34.8-33.6-33.5-34.8-34.8-34.6-38.3 0.2-3.1 1.7-5 11.1-14.5 8.9-8.9 11.4-10.9 13.8-10.9zm-23.1 127.4c3.4 0.2 7.7 1.2 10 2.3 2.2 1.1 5.5 3.3 7.3 4.9 1.9 1.6 4.6 5.4 6 8.4 1.9 4 2.6 7.1 2.6 11.5 0 4.4-0.7 7.5-2.6 11.5-1.4 3-4.1 6.8-6 8.4-1.8 1.6-5.1 3.8-7.3 5-3 1.5-5.8 2.1-11.5 2.1-5.8 0-8.4-0.5-11.5-2.2-2.2-1.2-5.7-3.9-7.7-6-2-2.1-4.6-5.8-5.7-8.3-1.3-2.9-2.1-6.6-2.1-10.5 0-3.9 0.8-7.6 2.1-10.5 1.1-2.5 3.7-6.2 5.7-8.3 2-2.1 5-4.6 6.5-5.4 1.5-0.9 4-2 5.5-2.4 1.5-0.5 5.4-0.7 8.7-0.5zm-13.3 23.1c-1 3.3-1 4.7 0 8 0.9 2.6 2.5 4.7 4.8 6.2 2.3 1.6 4.9 2.3 7.8 2.3 3.4 0 4.9-0.7 8-3.4 3.4-3.2 3.7-3.8 3.7-9.1 0-5.3-0.3-5.9-3.7-9.1-3.1-2.8-4.6-3.4-8.1-3.4-2.8 0-5.5 0.8-7.8 2.3-2.2 1.5-3.9 3.7-4.7 6.2zm-98.6 41.5c2.2 0 4.4 1.6 9.7 6.8 5.4 5.4 6.7 7.3 6.7 9.7-0.1 2.4-1.9 4.9-19.5 22.5l3.2 3.3c2.3 2.3 3.3 4.1 3.3 6.4 0 2.4-0.7 3.8-2.7 5.3-1.6 1.2-3.7 2-4.8 2-1.2 0-8.5-6.6-18.7-16.8-10.2-10.2-16.8-17.5-16.8-18.7 0-1.1 0.8-3.2 1.8-4.8 1.5-2 2.7-2.7 5.3-2.7 2.5 0 4.3 0.9 9.9 6.5l9.9-9.8c7.9-7.8 10.4-9.7 12.7-9.7z"/>
	</g>
</svg>