<?xml version="1.0" encoding="UTF-8"?>
<svg width="192" height="190.67" version="1.1" viewBox="0 0 192 190.67" xml:space="preserve" xmlns="http://www.w3.org/2000/svg" xmlns:cc="http://creativecommons.org/ns#" xmlns:dc="http://purl.org/dc/elements/1.1/" xmlns:rdf="http://www.w3.org/1999/02/22-rdf-syntax-ns#"><metadata><rdf:RDF><cc:Work rdf:about=""><dc:format>image/svg+xml</dc:format><dc:type rdf:resource="http://purl.org/dc/dcmitype/StillImage"/><dc:title/></cc:Work></rdf:RDF></metadata><g transform="matrix(1.3333 0 0 -1.3333 0 190.67)"><g transform="scale(.1)"><g><path d="m805.04 207.81-90.039 90.589-90.039-90.589c-43.082-43.399-96.441-70.348-152.3-80.93 53.281-76.648 141.91-126.88 242.34-126.88 100.39 0 189.06 50.199 242.3 126.84-55.231 10.461-108.08 37.031-150.97 79.68-0.668 0.628-0.668 0.628-1.289 1.289" fill="#ef3520"/><path d="m624.96 1222.2 90.039-90.59 90.039 90.59c43.082 43.4 96.441 70.35 152.3 80.93-53.281 76.65-141.91 126.88-242.34 126.88-100.39 0-189.06-50.2-242.3-126.84 55.231-10.5 108.08-37.03 150.97-79.68 0.668-0.63 0.668-0.63 1.289-1.29" fill="#f1d10a"/><path d="m420 1010v125c0 62.54 19.488 120.47 52.699 168.16-92 17.46-190.71-9.57-261.65-80.97l-0.352-0.35c-71.008-71.45-97.89-170.16-80.699-262.27 47.07 31.84 103.87 50.43 165 50.43h125" fill="#ed0b7c"/><path d="m1135 420h-125v-125c0-62.5-19.488-120.43-52.699-168.16 91.999-17.461 190.71 9.57 261.65 80.969l0.39 0.351c69.57 70.039 96.71 166.25 81.6 256.8-47.03-32.262-103.95-48.551-165.94-44.961" fill="#193137"/><path d="m1010 420h-174.18l-120.82-121.6 90.039-90.589c0.621-0.661 0.621-0.661 1.289-1.289 42.891-42.649 95.742-69.219 150.97-79.68 33.211 47.73 52.699 105.66 52.699 168.16v125" fill="#f1d10a"/><path d="m420 1010h174.18l120.82 121.6-90.039 90.59c-0.621 0.66-0.621 0.66-1.289 1.29-42.891 42.65-95.742 69.18-150.97 79.68-33.211-47.69-52.699-105.62-52.699-168.16v-125" fill="#ef3520"/><path d="m1010 1010h125c60.08 0 117.38-18.051 165.27-48.949 16.61 91.679-10.35 189.73-80.93 260.79l-0.39 0.35c-0.67 0.66-0.67 0.66-1.29 1.33-70.94 70.46-168.99 96.95-260.32 79.6 33.172-47.69 52.66-105.62 52.66-168.12v-125" fill="#64ccd5"/><path d="m420 420h-125c-61.129 0-117.93 18.59-165 50.43-17.191-92.11 9.691-190.82 80.699-262.27l0.352-0.351c0.668-0.661 0.668-0.661 1.289-1.329 70.941-70.46 168.99-96.91 260.32-79.601-33.172 47.691-52.66 105.62-52.66 168.12v125" fill="#292c57"/><path d="m715 1131.6 120.82-121.6h174.18v125c0 62.5-19.488 120.43-52.66 168.12-55.86-10.58-109.22-37.53-152.3-80.93l-90.039-90.59" fill="#292c57"/><path d="m715 298.4-120.82 121.6h-174.18v-125c0-62.5 19.488-120.43 52.66-168.12 55.86 10.582 109.22 37.531 152.3 80.93l90.039 90.589" fill="#193137"/><path d="m715 1131.6-120.82-121.6h241.64z" fill="#ed0b7c"/><path d="m715 298.4 120.82 121.6h-241.64z" fill="#292c57"/><path d="m301.05 715-90.391 90.941c-43.32 43.629-70.191 97.379-80.66 153.63-78.441-53.011-130-142.77-130-244.57s51.559-191.56 130-244.57c10.469 56.211 37.34 110 80.66 153.63l90.391 90.941" fill="#f1d10a"/><path d="m1300.3 961.05c-10.31-56.75-37.22-111.09-80.93-155.11l-90.39-90.941 90.39-90.941c44.72-45.039 71.87-100.9 81.6-159.1 72.73 49.84 121.83 137.93 129.06 250.04 6.64 102.62-47.77 193.2-129.73 246.05" fill="#ef3520"/><path d="m1129 715-118.95-119.73v-175.27h125c61.99-3.59 118.91 12.699 165.94 44.961-9.73 58.199-36.88 114.06-81.6 159.1l-90.39 90.941" fill="#292c57"/><path d="m301.05 715 118.95 119.69v175.31h-125c-61.129 0-117.93-18.59-165-50.43 10.469-56.25 37.34-110 80.66-153.63l90.391-90.941" fill="#193137"/><path d="m420 1010v-175.31l174.18 175.31z" fill="#64ccd5"/><path d="m1010 420v175.27l-174.18-175.27z" fill="#193137"/><path d="m420 420v175.27l-118.95 119.73-90.391-90.941c-43.32-43.629-70.191-97.418-80.66-153.63 47.07-31.84 103.87-50.43 165-50.43h125" fill="#64ccd5"/><path d="m1010 1010v-175.31l118.95-119.69 90.39 90.941c43.71 44.02 70.62 98.36 80.93 155.11-47.89 30.898-105.19 48.949-165.27 48.949h-125" fill="#193137"/><path d="m420 420h174.18l-174.18 175.27z" fill="#f1d10a"/><path d="m1010 1010h-174.18l174.18-175.31z" fill="#ef3520"/><path d="M 1010,595.27 1128.95,715 1010,834.691 Z" fill="#64ccd5"/><path d="m301.05 715 118.95-119.73v239.42z" fill="#ef3520"/><path d="m835.82 1010h-241.64l-174.18-175.31v-239.42l174.18-175.27h241.64l174.18 175.27v239.42l-174.18 175.31" fill="#585a5c"/></g><g fill="#fff" fill-rule="evenodd"><path d="m420.12 435c8.32 0 15.078-6.801 15.078-15.199 0-8.43-6.758-15.231-15.078-15.231-8.359 0-15.121 6.801-15.121 15.231 0 8.398 6.762 15.199 15.121 15.199"/><path d="m420.12 1025c8.32 0 15.078-6.8 15.078-15.2 0-8.43-6.758-15.23-15.078-15.23-8.359 0-15.121 6.8-15.121 15.23 0 8.4 6.762 15.2 15.121 15.2"/><path d="m715 1150.5c11.051 0 20-8.99 20-20 0-11.06-8.949-20-20-20s-20 8.94-20 20c0 11.01 8.949 20 20 20"/><path d="m715 315c11.051 0 20-8.949 20-20s-8.949-20-20-20-20 8.949-20 20 8.949 20 20 20"/><path d="m1010.1 435c8.32 0 15.08-6.801 15.08-15.199 0-8.43-6.76-15.231-15.08-15.231-8.36 0-15.12 6.801-15.12 15.231 0 8.398 6.76 15.199 15.12 15.199"/><path d="m1010.1 1025c8.32 0 15.08-6.8 15.08-15.2 0-8.43-6.76-15.23-15.08-15.23-8.36 0-15.12 6.8-15.12 15.23 0 8.4 6.76 15.2 15.12 15.2"/></g><g transform="matrix(1.4236 0 0 1.5694 -288.71 -403.32)" fill="#fff" stroke="#fff"><path d="m250.3 713.62c0-27.117 18.48-52.554 48.965-52.554 32.16 0 47.761 29.277 47.761 52.078 0 23.047-15.601 52.57-48.242 52.57-31.445 0-48.484-26.887-48.484-51.848zm-45.367-2.156c0 58.086 44.648 94.094 93.609 94.094 54.723 0 93.851-42.727 93.851-92.168 0-49.446-38.886-92.168-94.093-92.168-55.922 0-93.367 44.402-93.367 90.008v0.234"/><path d="m477.82 762.35h-35.039v39.843h115.21v-39.843h-34.804v-137.78h-45.368v137.78"/><path d="m653.5 713.62c0-27.117 18.48-52.554 48.965-52.554 32.164 0 47.769 29.277 47.769 52.078 0 23.047-15.605 52.57-48.246 52.57-31.445 0-48.488-26.887-48.488-51.848zm-45.363-2.156c0 58.086 44.644 94.094 93.605 94.094 54.735 0 93.856-42.727 93.856-92.168 0-49.446-38.887-92.168-94.094-92.168-55.922 0-93.367 44.402-93.367 90.008v0.234"/><path d="m876.86 624.57v177.62h60.735l33.355-114.5 32.405 114.5h60.97v-177.62h-41.77l1.44 132.97-38.404-132.97h-30l-38.398 132.97 1.433-132.97h-41.766"/><path d="m1144.1 802.2h45.36v-177.62h-45.36v177.62"/></g></g></g></svg>
