<svg id="logo_diap" xmlns="http://www.w3.org/2000/svg" viewBox="0 0 570.03 80.94"><defs><style>.cls-1{fill:#d53b27;fill-rule:evenodd;}.cls-2{fill:#fff;}</style></defs><path class="cls-1" d="M154.81,264.83a3.48,3.48,0,0,0-3.48,3.48v23.4a26.88,26.88,0,0,0,26.88,26.88h23.4a3.48,3.48,0,0,0,3.48-3.48v-46.8a3.48,3.48,0,0,0-3.48-3.48Zm-12.15-13.89h70.5a5.21,5.21,0,0,1,5.21,5.22v70.49a5.21,5.21,0,0,1-5.21,5.22H177.91a40.46,40.46,0,0,1-40.47-40.46V256.16A5.21,5.21,0,0,1,142.66,250.94Z" transform="translate(-137.44 -250.94)"/><path class="cls-2" d="M647.47,265.85a7.87,7.87,0,0,1,7.88,7.86c0,1.39,0,3.33,0,5a3.54,3.54,0,0,1-3.39,3.56H637.79c-1.16.05-1.6.6-1.6,1.54s.53,1.34,1.6,1.34l14.83-.12a2.61,2.61,0,0,1,2.63,2.58c0,1.59,0,5.45,0,8.08a2.62,2.62,0,0,1-2.63,2.63H637.79a1.73,1.73,0,0,0-1.68,1.68c.06,1,1.26,1.42,1.68,1.41,1.16,0,14.54,0,14.54,0a3.31,3.31,0,0,1,3.27,2.88v4.14a7.92,7.92,0,0,1-7.91,7.92H619.92a11.07,11.07,0,0,1-11.07-11.08c0-12.66,0-32.23,0-37.69,0-.72.59-1.73,1.32-1.73Z" transform="translate(-137.44 -250.94)"/><path class="cls-2" d="M289.7,265.85a7.89,7.89,0,0,1,7.9,7.9c0,6.1,0,13.39,0,13.39,0,3.13-.29,5.79-1.64,6.7-2.2,1.46-3.08,1.85-3.08,3.33,0,1.24,1,1.83,2,3.84a12.67,12.67,0,0,0,.7,1.24c1.33,2.09,4.94,8.05,4.94,11.32a2.76,2.76,0,0,1-2.88,2.76H277.87c-2.41,0-2.95-.45-3.46-1.47-.85-1.69-3.1-6-3.1-6-.74-1.14-1.14-1.54-2.27-1.07-.61.27-1,.4-1,1.47,0,2.41.1,2.65.1,4.32s-.43,2.72-1.91,2.72H253.51a11.05,11.05,0,0,1-11.06-11.07c0-12.89.06-33.08.07-38.12a1.31,1.31,0,0,1,1.32-1.3Zm-22.61,22.9a9.82,9.82,0,0,0,.07,2.75c.13,1,.62,1.57,1.41,1.4a25,25,0,0,0,4.14-1.4c1.07-.61,1.48-.67,1.48-2.55a1.28,1.28,0,0,0-1.26-1.34h-4C268.1,287.61,267.23,287.82,267.09,288.75Z" transform="translate(-137.44 -250.94)"/><path class="cls-2" d="M341.54,265.85a7.88,7.88,0,0,1,7.88,7.86c0,1.39,0,3.33,0,5a3.55,3.55,0,0,1-3.4,3.56H331.86c-1.16.05-1.6.6-1.6,1.54s.53,1.34,1.6,1.34l14.83-.12a2.62,2.62,0,0,1,2.63,2.58c0,1.59,0,5.45.05,8.08a2.63,2.63,0,0,1-2.63,2.63H331.86a1.72,1.72,0,0,0-1.68,1.68c.05,1,1.26,1.42,1.68,1.41,1.16,0,14.54,0,14.54,0a3.32,3.32,0,0,1,3.27,2.88v4.14a7.92,7.92,0,0,1-7.91,7.92H314a11.06,11.06,0,0,1-11.06-11.08c0-12.66,0-32.23,0-37.69,0-.72.59-1.73,1.31-1.73Z" transform="translate(-137.44 -250.94)"/><path class="cls-2" d="M392.13,265.88A15.78,15.78,0,0,1,408,281.58c0,4.14.05,11.84,0,19a15.79,15.79,0,0,1-15.8,15.79H364.9a11.07,11.07,0,0,1-11.07-11.08l.06-37.84c0-.73.6-1.59,1.33-1.57C359.36,265.92,378.17,265.91,392.13,265.88Zm-13.82,27.05c-.1,1.74,1.64,1.93,2.74,1.93,1.54,0,4-1.35,4-2.69v-1.6c0-2-2.27-3-3.94-3-2.83,0-2.79.86-2.81,3.5C378.29,291.68,378.32,292.31,378.31,292.93Z" transform="translate(-137.44 -250.94)"/><path class="cls-2" d="M449.45,265.89c1.78,0,2.3,1.67,2.34,3.28,0,1.22,0,2,0,4.08,0,1.8.09,2.13,1.18,2.33s1.74.2,2.61-1.74c1.2-2.67,1.62-4.16,2.28-5.62.53-1.17,1-2.39,2.6-2.33s17.07-.13,20.75,0c1.67.07,3.14,1.74,3.07,4-.06,3-7.12,15-8.25,16.76s-1.65,2.55-1.65,4.22c0,1.34.72,2.13,1.89,4.28,1.52,2.81,3.94,7.16,6.17,11.56a3,3,0,0,1,.18.41c.84,2.46,1.6,2.53,1.6,5.13,0,1.67-1.34,4-3,4.05s-17.8,0-20.42,0c-2.4,0-4-5.05-5.55-8-1-1.87-1.67-1.74-2.41-1.4s-1.08.87-1.07,2c0,.53,0,3.69,0,4.69,0,1.52-.93,2.71-2.12,2.7H436.82a11.06,11.06,0,0,1-11.06-11.06v-37.8a1.56,1.56,0,0,1,1.3-1.57Z" transform="translate(-137.44 -250.94)"/><path class="cls-2" d="M604,273.81v8.76s-.27,3.61-4.24,6.91l-.1.08c-1.29.9-1.55,1.17-1.55,1.7s.07.8,1.67,1.47c4.42,1.87,4.4,2.71,4.4,5.5l0,10.18a7.9,7.9,0,0,1-7.9,7.93H561a11.06,11.06,0,0,1-11.06-11.06v-38a1.34,1.34,0,0,1,1.29-1.34c5.61-.05,31.57,0,44.87,0A7.93,7.93,0,0,1,604,273.81Zm-27,27.38h1.4a1.58,1.58,0,0,0,1.47-1.64c0-1.4-.52-2.14-3.6-2.81-1.34-.32-1.42.23-1.42,1.67C574.88,300.54,575.49,301.16,577,301.19ZM576.57,286c2.94-.8,3.28-1.74,3.28-3.08a1.41,1.41,0,0,0-1.35-1.41h-2.2c-1.34,0-1.47.8-1.47,2.07C574.83,285.44,575.1,286.38,576.57,286Z" transform="translate(-137.44 -250.94)"/><path class="cls-2" d="M699.53,265.85a7.92,7.92,0,0,1,7.93,7.92V285c.13,1.32-.81,2.91-3.43,2.39-.47-.1-8.95-2.41-8.95-2.41-1.1-.32-2-.6-2.41.06s-.34,1.34.73,1.95c0,0,9.8,6.88,11.58,8.16s2.4,3,2.48,5.55v7.77a7.91,7.91,0,0,1-7.91,7.91h-29.2a11.06,11.06,0,0,1-11.06-11c0-3.42,0-6.55-.08-7.58-.07-1.2,1.6-2.41,2.67-2.41l8.1,2.21c1.54.67,2.21.67,2.61,0s.44-.74-1.14-2.41l-8.63-8c-3.41-3.05-3.55-4.89-3.55-10.24v-9.4c0-.73.59-1.67,1.31-1.67Z" transform="translate(-137.44 -250.94)"/><path class="cls-2" d="M511.16,266c2,0,3.27,2,3.27,3.81v20.64a2.65,2.65,0,0,0,2.64,2.66h.61a2.63,2.63,0,0,0,2.62-2.65c0-5.76-.06-19.06-.06-23.15a1.31,1.31,0,0,1,1.31-1.31h18.3c4.16,0,5.32,2.93,5.32,7.3v35.29a7.9,7.9,0,0,1-7.86,7.91H499.65a11,11,0,0,1-11-11.05c0-13.35,0-34.45,0-37.86,0-.72.58-1.59,1.3-1.59Z" transform="translate(-137.44 -250.94)"/></svg>