<?xml version="1.0" encoding="utf-8"?>
<svg version="1.1" id="Layer_5" x="0px" y="0px" viewBox="97.33 21.86 121.929 119.045" style="enable-background:new 0 0 311.5 245.2;" xmlns="http://www.w3.org/2000/svg">
  <style type="text/css">
	.st0{fill:#FFFFFF;}
	.st1{fill:none;}
	.st2{fill:#009BDB;}
	.st3{fill:#717074;}
</style>
  <g style="opacity: 0.9;">
    <g>
      <path class="st1" d="M211.5,83.4c0-0.7,0.1-1.4,0.1-2c0-0.7,0-1.4-0.1-2V83.4z"/>
      <path class="st2" d="M196.3,115.5c-3.3,0-4.9,1.2-6.7,2.7c-2,1.6-4.2,3.4-8.6,3.4c-4.3,0-6.6-1.8-8.6-3.4 c-1.8-1.4-3.4-2.7-6.7-2.7c-3.3,0-4.9,1.2-6.7,2.7c-2,1.6-4.2,3.4-8.6,3.4c-4.3,0-6.6-1.8-8.6-3.4c-1.8-1.4-3.4-2.7-6.7-2.7 s-4.9,1.2-6.7,2.7c-1.3,1-2.7,2.2-4.8,2.8c8.3,7.3,18.9,12,30.5,13c0.3,0,0.6,0.1,1,0.1c1.1,0.1,2.3,0.1,3.4,0.1 c1.2,0,2.3-0.1,3.4-0.1c0.3,0,0.6,0,1-0.1c14.2-1.2,26.8-8,35.6-18.2C198,115.7,197.2,115.5,196.3,115.5z"/>
      <path class="st2" d="M120.1,76.1c3.6,0,5.3-1.4,7.2-2.9c2-1.6,4-3.2,8-3.2c4,0,6.1,1.6,8,3.2c1.9,1.5,3.6,2.9,7.2,2.9 c3.6,0,5.3-1.4,7.2-2.9c2-1.6,4-3.2,8-3.2c4,0,6.1,1.6,8,3.2c1.9,1.5,3.6,2.9,7.2,2.9c3.6,0,5.3-1.4,7.2-2.9c2-1.6,4-3.2,8-3.2 c4,0,6.1,1.6,8,3.2c1.8,1.5,3.6,2.8,7,2.9c-0.5-4.8-1.6-9.5-3.3-13.8c-1.8-0.6-3.1-1.6-4.4-2.6c-1.9-1.5-3.7-2.9-7.4-2.9 c-3.7,0-5.5,1.4-7.4,2.9c-1.9,1.5-3.9,3.1-7.9,3.1c-4,0-5.9-1.6-7.9-3.1c-1.9-1.5-3.7-2.9-7.4-2.9c-3.7,0-5.5,1.4-7.4,2.9 c-1.9,1.5-3.9,3.1-7.9,3.1c-4,0-5.9-1.6-7.9-3.1c-1.9-1.5-3.7-2.9-7.4-2.9s-5.5,1.4-7.4,2.9c-1.9,1.5-3.9,3.1-7.9,3.1 c-4,0-5.9-1.6-7.9-3.1c-0.4-0.3-0.9-0.7-1.3-1c-1.7,3.6-3.1,7.5-3.9,11.6c2.7,0.5,4.3,1.7,5.9,3C114.8,74.7,116.5,76.1,120.1,76.1 z"/>
      <path class="st2" d="M120.1,61.9c3.7,0,5.5-1.4,7.4-2.9c1.9-1.5,3.9-3.1,7.9-3.1c4,0,5.9,1.6,7.9,3.1c1.9,1.5,3.7,2.9,7.4,2.9 c3.7,0,5.5-1.4,7.4-2.9c1.9-1.5,3.9-3.1,7.9-3.1c4,0,5.9,1.6,7.9,3.1c1.9,1.5,3.7,2.9,7.4,2.9c3.7,0,5.5-1.4,7.4-2.9 c1.9-1.5,3.9-3.1,7.9-3.1c4,0,5.9,1.6,7.9,3.1c1.1,0.8,2.1,1.7,3.4,2.2c-7.9-19.2-26.9-32.8-48.9-32.8c-20.8,0-38.7,12-47.4,29.5 c0.5,0.4,1,0.7,1.4,1.1C114.6,60.5,116.4,61.9,120.1,61.9z"/>
      <path class="st2" d="M196.3,100.8c-3.4,0-5,1.3-6.8,2.8c-1.9,1.5-4.1,3.3-8.4,3.3c-4.2,0-6.4-1.7-8.4-3.3 c-1.9-1.5-3.5-2.8-6.8-2.8c-3.4,0-5,1.3-6.8,2.8c-1.9,1.5-4.1,3.3-8.4,3.3c-4.2,0-6.4-1.7-8.4-3.3c-1.9-1.5-3.5-2.8-6.8-2.8 c-3.4,0-5,1.3-6.8,2.8c-1.9,1.5-4.1,3.3-8.4,3.3c-4.2,0-6.4-1.7-8.4-3.3c-0.5-0.4-1-0.8-1.5-1.1c2.6,6,6.3,11.4,10.9,16 c2.6-0.2,4-1.4,5.6-2.6c2-1.6,4.2-3.4,8.6-3.4c4.3,0,6.6,1.8,8.6,3.4c1.8,1.4,3.4,2.7,6.7,2.7c3.3,0,4.9-1.2,6.7-2.7 c2-1.6,4.2-3.4,8.6-3.4c4.3,0,6.6,1.8,8.6,3.4c1.8,1.4,3.4,2.7,6.7,2.7c3.3,0,4.9-1.2,6.7-2.7c2-1.6,4.2-3.4,8.6-3.4 c1.8,0,3.3,0.3,4.5,0.8c1.9-2.5,3.5-5.1,5-7.9c-1-0.6-1.8-1.2-2.6-1.8C201.3,102.1,199.6,100.8,196.3,100.8z"/>
      <path class="st2" d="M211.4,77.5c-4,0-6-1.6-8-3.2c-1.9-1.5-3.6-2.9-7.2-2.9c-3.6,0-5.3,1.4-7.2,2.9c-2,1.6-4,3.2-8,3.2 c-4,0-6.1-1.6-8-3.2c-1.9-1.5-3.6-2.9-7.2-2.9c-3.6,0-5.3,1.4-7.2,2.9c-2,1.6-4,3.2-8,3.2c-4,0-6.1-1.6-8-3.2 c-1.9-1.5-3.6-2.9-7.2-2.9c-3.6,0-5.3,1.4-7.2,2.9c-2,1.6-4,3.2-8,3.2c-4,0-6.1-1.6-8-3.2c-1.5-1.2-3-2.3-5.3-2.7 c-0.5,2.5-0.8,5.1-0.9,7.7c0,0.7-0.1,1.4-0.1,2c0,0.7,0,1.4,0.1,2c0,0.3,0,0.6,0,0.9c3.5,0.3,5.4,1.8,7.2,3.2 c1.8,1.4,3.5,2.8,7,2.8c3.5,0,5.2-1.4,7-2.8c1.9-1.5,4.1-3.2,8.2-3.2s6.3,1.7,8.2,3.2c1.8,1.4,3.5,2.8,7,2.8c3.5,0,5.2-1.4,7-2.8 c1.9-1.5,4.1-3.2,8.2-3.2c4.1,0,6.3,1.7,8.2,3.2c1.8,1.4,3.5,2.8,7,2.8c3.5,0,5.2-1.4,7-2.8c1.9-1.5,4.1-3.2,8.2-3.2 c4.1,0,6.3,1.7,8.2,3.2c1.7,1.3,3.3,2.6,6.3,2.8c0.3-1.6,0.5-3.2,0.6-4.9c0-0.6,0.1-1.3,0.1-1.9v-4.1 C211.5,78.6,211.4,77.5,211.4,77.5z"/>
      <path class="st2" d="M196.3,86.1c-3.5,0-5.2,1.4-7,2.8c-1.9,1.5-4.1,3.2-8.2,3.2c-4.1,0-6.3-1.7-8.2-3.2c-1.8-1.4-3.5-2.8-7-2.8 c-3.5,0-5.2,1.4-7,2.8c-1.9,1.5-4.1,3.2-8.2,3.2c-4.1,0-6.3-1.7-8.2-3.2c-1.8-1.4-3.5-2.8-7-2.8c-3.5,0-5.2,1.4-7,2.8 c-1.9,1.5-4.1,3.2-8.2,3.2c-4.1,0-6.3-1.7-8.2-3.2c-1.6-1.3-3.1-2.5-5.8-2.8c0.4,4.5,1.4,8.7,2.8,12.8c1.9,0.6,3.2,1.7,4.4,2.7 c1.9,1.5,3.5,2.8,6.8,2.8c3.4,0,5-1.3,6.8-2.8c1.9-1.5,4.1-3.3,8.4-3.3c4.2,0,6.4,1.7,8.4,3.3c1.9,1.5,3.5,2.8,6.8,2.8 c3.4,0,5-1.3,6.8-2.8c1.9-1.5,4.1-3.3,8.4-3.3c4.2,0,6.4,1.7,8.4,3.3c1.9,1.5,3.5,2.8,6.8,2.8c3.4,0,5-1.3,6.8-2.8 c1.9-1.5,4.1-3.3,8.4-3.3c4.2,0,6.4,1.7,8.4,3.3c0.7,0.6,1.4,1.1,2.2,1.6c1.6-3.5,2.8-7.2,3.6-11.1c-3.5-0.3-5.4-1.8-7.2-3.2 C201.5,87.5,199.7,86.1,196.3,86.1z"/>
      <path class="st0" d="M187.7,115.9c-1.8,1.4-3.4,2.7-6.7,2.7c-3.3,0-4.9-1.2-6.7-2.7c-2-1.6-4.2-3.4-8.6-3.4 c-4.3,0-6.6,1.8-8.6,3.4c-1.8,1.4-3.4,2.7-6.7,2.7c-3.3,0-4.9-1.2-6.7-2.7c-2-1.6-4.2-3.4-8.6-3.4c-4.3,0-6.6,1.8-8.6,3.4 c-1.6,1.3-3,2.4-5.6,2.6c0.9,0.9,1.8,1.7,2.7,2.5c2.1-0.6,3.5-1.8,4.8-2.8c1.8-1.4,3.4-2.7,6.7-2.7c3.3,0,4.9,1.2,6.7,2.7 c2,1.6,4.2,3.4,8.6,3.4c4.3,0,6.6-1.8,8.6-3.4c1.8-1.4,3.4-2.7,6.7-2.7c3.3,0,4.9,1.2,6.7,2.7c2,1.6,4.2,3.4,8.6,3.4 c4.3,0,6.6-1.8,8.6-3.4c1.8-1.4,3.4-2.7,6.7-2.7c0.9,0,1.7,0.1,2.4,0.3c0.7-0.8,1.4-1.7,2-2.5c-1.2-0.5-2.7-0.8-4.5-0.8 C191.9,112.5,189.7,114.3,187.7,115.9z"/>
      <path class="st0" d="M196.3,98.4c-4.2,0-6.4,1.7-8.4,3.3c-1.9,1.5-3.5,2.8-6.8,2.8c-3.4,0-5-1.3-6.8-2.8c-1.9-1.5-4.1-3.3-8.4-3.3 c-4.2,0-6.4,1.7-8.4,3.3c-1.9,1.5-3.5,2.8-6.8,2.8c-3.4,0-5-1.3-6.8-2.8c-1.9-1.5-4.1-3.3-8.4-3.3c-4.2,0-6.4,1.7-8.4,3.3 c-1.9,1.5-3.5,2.8-6.8,2.8c-3.4,0-5-1.3-6.8-2.8c-1.2-1-2.5-2-4.4-2.7c0.4,1.2,0.9,2.3,1.4,3.5c0.5,0.3,1,0.7,1.5,1.1 c1.9,1.5,4.1,3.3,8.4,3.3c4.2,0,6.4-1.7,8.4-3.3c1.9-1.5,3.5-2.8,6.8-2.8c3.4,0,5,1.3,6.8,2.8c1.9,1.5,4.1,3.3,8.4,3.3 c4.2,0,6.4-1.7,8.4-3.3c1.9-1.5,3.5-2.8,6.8-2.8c3.4,0,5,1.3,6.8,2.8c1.9,1.5,4.1,3.3,8.4,3.3c4.2,0,6.4-1.7,8.4-3.3 c1.9-1.5,3.5-2.8,6.8-2.8c3.4,0,5,1.3,6.8,2.8c0.8,0.6,1.6,1.3,2.6,1.8c0.4-0.7,0.7-1.5,1.1-2.2c-0.8-0.4-1.4-1-2.2-1.6 C202.7,100.1,200.5,98.4,196.3,98.4z"/>
      <path class="st0" d="M196.3,84.2c-4.1,0-6.3,1.7-8.2,3.2c-1.8,1.4-3.5,2.8-7,2.8c-3.5,0-5.2-1.4-7-2.8c-1.9-1.5-4.1-3.2-8.2-3.2 c-4.1,0-6.3,1.7-8.2,3.2c-1.8,1.4-3.5,2.8-7,2.8c-3.5,0-5.2-1.4-7-2.8c-1.9-1.5-4.1-3.2-8.2-3.2c-4.1,0-6.3,1.7-8.2,3.2 c-1.8,1.4-3.5,2.8-7,2.8c-3.5,0-5.2-1.4-7-2.8c-1.7-1.4-3.7-2.9-7.2-3.2c0,0.6,0.1,1.3,0.1,1.9c2.7,0.3,4.2,1.5,5.8,2.8 c1.9,1.5,4.1,3.2,8.2,3.2c4.1,0,6.3-1.7,8.2-3.2c1.8-1.4,3.5-2.8,7-2.8c3.5,0,5.2,1.4,7,2.8c1.9,1.5,4.1,3.2,8.2,3.2 c4.1,0,6.3-1.7,8.2-3.2c1.8-1.4,3.5-2.8,7-2.8c3.5,0,5.2,1.4,7,2.8c1.9,1.5,4.1,3.2,8.2,3.2c4.1,0,6.3-1.7,8.2-3.2 c1.8-1.4,3.5-2.8,7-2.8c3.5,0,5.2,1.4,7,2.8c1.7,1.4,3.7,2.9,7.2,3.2c0.1-0.6,0.2-1.3,0.3-1.9c-3-0.2-4.6-1.4-6.3-2.8 C202.6,85.9,200.4,84.2,196.3,84.2z"/>
      <path class="st0" d="M120.1,77.5c4,0,6.1-1.6,8-3.2c1.9-1.5,3.6-2.9,7.2-2.9c3.6,0,5.3,1.4,7.2,2.9c2,1.6,4,3.2,8,3.2 c4,0,6.1-1.6,8-3.2c1.9-1.5,3.6-2.9,7.2-2.9c3.6,0,5.3,1.4,7.2,2.9c2,1.6,4,3.2,8,3.2c4,0,6.1-1.6,8-3.2c1.9-1.5,3.6-2.9,7.2-2.9 c3.6,0,5.3,1.4,7.2,2.9c1.9,1.5,4,3.1,8,3.2l0-0.1c0-0.4-0.1-0.8-0.1-1.3c-3.4-0.1-5.2-1.4-7-2.9c-2-1.6-4-3.2-8-3.2 c-4,0-6.1,1.6-8,3.2c-1.9,1.5-3.6,2.9-7.2,2.9c-3.6,0-5.3-1.4-7.2-2.9c-2-1.6-4-3.2-8-3.2c-4,0-6.1,1.6-8,3.2 c-1.9,1.5-3.6,2.9-7.2,2.9c-3.6,0-5.3-1.4-7.2-2.9c-2-1.6-4-3.2-8-3.2c-4,0-6.1,1.6-8,3.2c-1.9,1.5-3.6,2.9-7.2,2.9 c-3.6,0-5.3-1.4-7.2-2.9c-1.6-1.3-3.2-2.5-5.9-3c-0.1,0.4-0.2,0.9-0.3,1.3c2.4,0.4,3.8,1.5,5.3,2.7C114,75.9,116,77.5,120.1,77.5z "/>
      <path class="st0" d="M120.1,62.8c4,0,5.9-1.6,7.9-3.1c1.9-1.5,3.7-2.9,7.4-2.9s5.5,1.4,7.4,2.9c1.9,1.5,3.9,3.1,7.9,3.1 c4,0,5.9-1.6,7.9-3.1c1.9-1.5,3.7-2.9,7.4-2.9c3.7,0,5.5,1.4,7.4,2.9c1.9,1.5,3.9,3.1,7.9,3.1c4,0,5.9-1.6,7.9-3.1 c1.9-1.5,3.7-2.9,7.4-2.9c3.7,0,5.5,1.4,7.4,2.9c1.3,1,2.5,2,4.4,2.6c-0.1-0.3-0.3-0.7-0.4-1c-1.3-0.6-2.4-1.4-3.4-2.2 c-1.9-1.5-3.9-3.1-7.9-3.1c-4,0-5.9,1.6-7.9,3.1c-1.9,1.5-3.7,2.9-7.4,2.9c-3.7,0-5.5-1.4-7.4-2.9c-1.9-1.5-3.9-3.1-7.9-3.1 c-4,0-5.9,1.6-7.9,3.1c-1.9,1.5-3.7,2.9-7.4,2.9c-3.7,0-5.5-1.4-7.4-2.9c-1.9-1.5-3.9-3.1-7.9-3.1c-4,0-5.9,1.6-7.9,3.1 c-1.9,1.5-3.7,2.9-7.4,2.9c-3.7,0-5.5-1.4-7.4-2.9c-0.5-0.4-0.9-0.7-1.4-1.1c-0.1,0.2-0.3,0.5-0.4,0.8c0.4,0.3,0.9,0.6,1.3,1 C114.1,61.2,116.1,62.8,120.1,62.8z"/>
    </g>
  </g>
</svg>