<svg xmlns="http://www.w3.org/2000/svg" xmlns:xlink="http://www.w3.org/1999/xlink" viewBox="0 0 65 66" fill="#fff" fill-rule="evenodd" stroke="#000" stroke-linecap="round" stroke-linejoin="round"><use xlink:href="#A" x=".5" y=".5"/><symbol id="A" overflow="visible"><g stroke="none" fill-rule="nonzero"><path d="M18.228 35.951L50.85 6.827c-2.59-2.051-5.482-3.699-8.643-4.843L18.228 23.407zm-9.383-4.204L0 39.651c.8 3.228 2.093 6.314 3.834 9.148l5.011-4.473z" fill="#32324b"/><path d="M35.649 7.802V.336C34.169.135 32.622 0 31.075 0c-1.614 0-3.229.135-4.776.37v15.84zm0 44.023V20.38l-9.383 8.374V63.63c1.547.235 3.161.37 4.776.37a30.51 30.51 0 0 0 5.583-.504l25.089-22.398c.841-2.892 1.312-5.919 1.312-9.08a31.12 31.12 0 0 0-.303-4.372z" fill="#00d2ff"/><path d="M35.649 42.576l25.122-22.466c-1.211-2.993-2.825-5.785-4.843-8.24L35.615 29.998v12.578zm-9.349-4.17l-8.071 7.197V2.69c-3.498 1.547-6.659 3.666-9.383 6.289v46.007c2.119 2.052 4.507 3.8 7.096 5.213l10.325-9.215V38.406z" fill="#ff4b19"/></g></symbol></svg>