<svg height="64" viewBox="-.92 .46 64 64" width="64" xmlns="http://www.w3.org/2000/svg" xmlns:xlink="http://www.w3.org/1999/xlink"><clipPath id="a"><path d="m-28-10h413v309.8h-413z"/></clipPath><g transform="matrix(.336311 0 0 .336311 -29.052423 -1.55785)"><path clip-path="url(#a)" d="m139.3 112.9 97-86.6c-7.7-6.1-16.3-11-25.7-14.4l-71.3 63.7zm-27.9-12.5-26.3 23.5a96.21 96.21 0 0 0 11.4 27.2l14.9-13.3z" fill="#32324b"/><path clip-path="url(#a)" d="m191.1 29.2v-22.2c-4.4-.6-9-1-13.6-1-4.8 0-9.6.4-14.2 1.1v47.1zm0 130.9v-93.5l-27.9 24.9v103.7c4.6.7 9.4 1.1 14.2 1.1a90.71 90.71 0 0 0 16.6-1.5l74.6-66.6c2.5-8.6 3.9-17.6 3.9-27 0-4.4-.3-8.8-.9-13z" fill="#00d2ff"/><path clip-path="url(#a)" d="m191.1 132.6 74.7-66.8c-3.6-8.9-8.4-17.2-14.4-24.5l-60.4 53.9v37.4zm-27.8-12.4-24 21.4v-127.6c-10.4 4.6-19.8 10.9-27.9 18.7v136.8c6.3 6.1 13.4 11.3 21.1 15.5l30.7-27.4v-37.4z" fill="#ff4b19"/></g></svg>