<?xml version="1.0" standalone="no"?>
<!DOCTYPE svg PUBLIC "-//W3C//DTD SVG 20010904//EN"
 "http://www.w3.org/TR/2001/REC-SVG-20010904/DTD/svg10.dtd">
<svg version="1.0" xmlns="http://www.w3.org/2000/svg"
 width="864.000000pt" height="864.000000pt" viewBox="0 0 864.000000 864.000000"
 preserveAspectRatio="xMidYMid meet">
<metadata>
Created by potrace 1.14, written by Peter Selinger 2001-2017
</metadata>
<g transform="translate(0.000000,864.000000) scale(0.100000,-0.100000)"
fill="#000000" stroke="none">
<path d="M4557 8584 c-1 -1 -56 -5 -122 -9 -66 -3 -133 -8 -150 -9 -68 -7
-154 -18 -210 -26 -33 -5 -78 -12 -100 -15 -22 -3 -69 -12 -105 -20 -36 -8
-81 -16 -100 -19 -42 -6 -278 -68 -370 -97 -88 -28 -260 -88 -285 -99 -11 -5
-65 -28 -120 -51 -55 -23 -122 -53 -150 -67 -27 -14 -56 -27 -64 -28 -8 -2
-18 -9 -22 -16 -5 -7 -9 -10 -9 -6 0 12 -300 -153 -334 -184 -11 -10 -24 -18
-29 -18 -8 0 -74 -43 -201 -130 -38 -26 -151 -109 -166 -122 -8 -7 -41 -35
-74 -61 -141 -113 -406 -367 -501 -480 -22 -26 -52 -62 -67 -79 -16 -17 -28
-36 -28 -40 0 -5 -5 -6 -10 -3 -6 3 -10 2 -10 -3 0 -5 -21 -35 -46 -68 -107
-137 -142 -186 -200 -274 -239 -366 -406 -716 -527 -1110 -32 -103 -72 -251
-83 -305 -4 -19 -6 -30 -19 -87 -3 -13 -8 -36 -10 -53 -3 -16 -12 -66 -19
-110 -8 -44 -14 -87 -14 -95 0 -8 -3 -28 -7 -45 -7 -32 -8 -40 -20 -180 -13
-147 -14 -172 -14 -365 0 -186 1 -237 14 -385 11 -138 19 -195 42 -330 8 -49
17 -103 20 -120 27 -172 163 -621 239 -793 13 -29 24 -54 24 -56 0 -2 14 -34
32 -72 17 -38 32 -71 33 -74 0 -3 12 -25 25 -50 13 -25 25 -47 25 -50 2 -13
65 -126 137 -250 65 -109 236 -366 272 -407 13 -14 18 -21 66 -83 19 -25 39
-50 45 -56 5 -6 26 -30 45 -53 109 -131 335 -358 470 -471 36 -30 67 -57 70
-60 3 -3 25 -21 50 -40 25 -19 46 -38 48 -42 2 -5 10 -8 18 -8 8 0 14 -4 14
-8 0 -4 39 -35 86 -68 47 -32 91 -64 97 -69 42 -37 303 -193 457 -272 174 -90
518 -237 605 -258 6 -1 17 -4 25 -8 37 -13 62 -21 174 -53 65 -18 135 -36 155
-40 20 -4 41 -9 46 -13 6 -3 19 -7 30 -8 11 -2 43 -8 70 -13 122 -25 200 -38
255 -45 25 -3 56 -7 70 -10 101 -18 347 -35 515 -35 119 0 133 1 153 13 6 5
12 5 12 2 0 -4 14 3 30 15 39 28 39 61 -1 99 -29 28 -126 71 -194 87 -16 4
-34 10 -40 15 -5 4 -12 7 -15 7 -18 -3 -296 107 -425 168 -44 21 -83 37 -87
36 -5 -1 -8 2 -8 7 0 8 -37 24 -52 22 -5 -1 -8 3 -8 8 0 5 -9 12 -20 16 -51
16 -401 225 -436 260 -8 7 -23 17 -34 20 -11 3 -20 11 -20 16 0 5 -6 9 -14 9
-8 0 -16 3 -18 8 -1 4 -39 34 -83 66 -67 50 -155 120 -201 161 -6 6 -40 35
-75 65 -87 76 -278 268 -361 365 -38 44 -82 94 -96 110 -15 17 -38 46 -52 65
-13 19 -27 37 -31 40 -4 3 -24 30 -45 60 -20 30 -40 57 -44 60 -12 9 -170 251
-170 261 0 5 -4 9 -8 9 -4 0 -13 12 -19 28 -7 15 -17 34 -22 42 -18 26 -79
135 -79 140 0 3 -13 28 -29 55 -42 73 -127 260 -186 410 -44 111 -139 407
-151 470 -2 11 -9 40 -16 65 -7 25 -14 54 -17 65 -10 46 -15 71 -18 90 -2 11
-10 58 -19 105 -9 47 -18 101 -20 120 -3 19 -7 49 -10 65 -3 17 -8 59 -11 95
-3 36 -8 81 -10 100 -4 31 -18 380 -17 405 1 6 3 64 6 130 8 180 16 278 31
375 2 14 7 45 10 70 9 64 15 101 20 130 3 14 7 39 10 55 4 31 10 61 21 105 12
53 24 106 29 130 3 14 8 32 11 40 3 8 8 26 11 40 2 14 11 46 19 71 9 25 16 53
18 62 1 9 5 20 9 23 4 4 7 13 7 20 0 7 5 25 12 41 6 15 13 35 14 43 2 19 85
231 118 304 14 31 26 59 26 61 0 7 119 248 153 310 54 98 157 265 205 335 89
129 166 235 182 250 8 8 28 33 45 55 16 22 37 47 47 56 10 9 18 19 18 22 0 11
91 108 240 257 167 166 259 247 419 370 18 14 39 31 46 38 8 6 18 12 24 12 6
0 11 5 11 10 0 6 7 10 15 10 8 0 15 4 15 8 0 11 213 152 229 152 6 0 11 4 11
9 0 5 15 16 33 26 17 9 50 27 72 40 103 59 138 78 255 135 121 59 158 76 210
98 14 5 45 19 70 30 25 10 86 34 135 52 50 18 97 35 105 38 8 3 20 6 25 7 31
8 185 59 216 71 45 20 74 65 59 94 -9 16 -42 42 -60 45 -3 1 -25 5 -50 10 -36
7 -217 14 -223 9z"/>
<path d="M5407 7944 c-1 -1 -47 -5 -102 -9 -55 -3 -113 -8 -130 -10 -16 -2
-50 -6 -75 -8 -66 -7 -129 -17 -178 -28 -23 -5 -59 -12 -80 -15 -20 -3 -55
-10 -77 -16 -22 -5 -47 -11 -55 -13 -76 -16 -248 -69 -358 -111 -37 -14 -71
-27 -77 -28 -10 -3 -33 -13 -135 -58 -84 -37 -245 -120 -336 -174 -109 -64
-288 -183 -292 -195 -2 -5 -10 -9 -17 -9 -7 0 -15 -3 -17 -8 -1 -4 -32 -30
-67 -57 -175 -136 -428 -389 -558 -560 -21 -28 -42 -55 -48 -61 -5 -6 -17 -22
-25 -34 -8 -13 -25 -35 -37 -50 -13 -15 -23 -32 -23 -38 0 -6 -4 -12 -8 -14
-9 -3 -87 -124 -117 -180 -11 -21 -23 -38 -27 -38 -5 0 -8 -9 -8 -20 0 -11 -4
-20 -8 -20 -16 0 -212 -422 -212 -456 0 -8 -4 -14 -8 -14 -5 0 -9 -6 -9 -12 0
-7 -14 -53 -31 -103 -25 -74 -60 -194 -77 -265 -10 -43 -38 -179 -42 -205 -2
-16 -6 -41 -9 -55 -3 -14 -7 -43 -9 -65 -3 -22 -7 -54 -10 -72 -8 -44 -18
-185 -19 -265 -1 -38 -4 -68 -7 -68 -3 0 -3 -23 1 -50 4 -28 3 -53 -2 -56 -5
-3 -6 -9 -3 -13 2 -5 7 -59 10 -122 7 -139 11 -192 19 -244 3 -22 9 -60 12
-85 8 -63 12 -88 24 -145 6 -27 12 -57 14 -65 20 -96 69 -276 78 -287 6 -7 8
-13 4 -13 -6 0 67 -210 81 -232 4 -7 8 -19 9 -26 4 -23 53 -80 75 -87 38 -12
54 17 52 93 -3 176 -12 373 -17 380 -3 5 -3 12 1 16 9 9 9 66 0 66 -5 0 -5 5
-1 11 3 6 8 39 9 73 3 64 14 193 20 236 2 14 6 48 10 75 3 28 15 93 25 145 11
52 22 108 25 124 2 15 7 36 10 46 3 10 8 27 10 37 33 145 127 414 191 548 15
33 29 62 30 65 1 3 5 15 9 28 4 12 11 22 16 22 5 0 8 3 7 8 -2 7 33 78 74 149
11 21 26 47 32 58 22 39 177 277 187 285 3 3 18 23 34 45 104 142 231 283 394
438 45 42 86 77 91 77 6 0 10 6 10 14 0 8 6 16 13 19 6 2 53 36 102 75 50 39
101 80 115 90 36 28 202 138 241 160 19 11 66 38 105 60 100 57 280 142 404
190 97 38 137 53 150 57 45 14 126 39 130 40 3 1 25 8 50 15 25 7 48 14 53 16
4 1 8 3 10 4 1 1 13 3 27 5 14 1 45 8 70 15 25 7 54 14 65 16 11 2 34 6 50 9
17 3 44 8 60 10 17 3 41 7 55 10 14 3 48 8 75 11 28 3 66 7 85 10 186 22 643
23 825 0 17 -2 64 -6 105 -10 80 -7 101 -10 165 -20 22 -3 58 -8 80 -11 41 -5
52 -7 95 -18 14 -4 41 -9 61 -11 20 -3 42 -8 50 -10 8 -3 25 -7 39 -10 82 -14
423 -116 485 -145 11 -6 54 -24 95 -42 41 -17 107 -48 145 -67 39 -20 73 -36
77 -37 4 0 13 -6 20 -12 6 -7 17 -13 24 -13 7 0 14 -3 16 -7 2 -5 19 -16 38
-26 37 -19 252 -168 292 -202 82 -71 138 -99 138 -70 0 26 -39 134 -71 194
-133 253 -324 485 -589 715 -107 93 -401 296 -429 296 -5 0 -11 4 -13 8 -5 14
-287 148 -389 186 -174 64 -377 124 -497 146 -31 5 -68 12 -82 15 -14 3 -43 8
-65 11 -22 3 -51 8 -65 10 -142 22 -345 36 -533 38 -71 1 -129 0 -130 0z"/>
<path d="M5516 6482 c-3 -2 -24 -6 -48 -8 -53 -5 -127 -16 -203 -29 -16 -3
-46 -8 -65 -11 -19 -2 -79 -16 -135 -30 -55 -15 -104 -27 -110 -28 -12 -3 -84
-25 -105 -33 -8 -3 -19 -7 -25 -8 -5 0 -17 -4 -25 -7 -8 -4 -37 -14 -65 -23
-27 -9 -63 -24 -80 -33 -16 -9 -31 -15 -32 -14 -7 5 -274 -122 -368 -175 -202
-115 -435 -288 -435 -324 0 -12 32 -27 53 -23 11 1 56 17 100 36 45 18 84 33
87 34 3 0 12 3 20 7 28 11 165 59 180 63 8 2 53 15 100 28 70 21 212 54 305
72 11 2 31 6 45 9 63 12 221 35 275 40 17 1 73 6 125 11 169 15 648 8 770 -11
14 -2 50 -7 80 -10 117 -14 169 -21 245 -35 28 -5 66 -12 85 -15 30 -5 111
-23 250 -55 129 -30 376 -105 550 -169 158 -57 403 -164 433 -189 9 -8 17 -12
17 -8 0 6 81 -36 193 -100 32 -19 60 -34 62 -34 4 0 235 -144 339 -211 67 -44
76 -46 76 -22 0 16 -66 143 -79 153 -4 3 -17 21 -29 40 -11 20 -29 45 -39 57
-10 11 -38 45 -63 74 -99 116 -190 209 -285 290 -21 19 -46 41 -55 49 -17 16
-32 27 -150 114 -41 31 -80 59 -86 63 -15 12 -42 28 -104 65 -30 17 -56 35
-58 40 -2 4 -12 8 -22 8 -10 0 -20 4 -22 8 -3 9 -199 106 -257 127 -20 8 -61
23 -91 35 -85 33 -279 92 -350 106 -14 2 -65 13 -115 23 -98 21 -133 27 -295
48 -54 7 -588 12 -594 5z"/>
</g>
</svg>
