<?xml version="1.0" encoding="UTF-8"?>
<!DOCTYPE svg PUBLIC "-//W3C//DTD SVG 1.1//EN" "http://www.w3.org/Graphics/SVG/1.1/DTD/svg11.dtd">
<svg xmlns="http://www.w3.org/2000/svg" version="1.1" width="415px" height="435px" style="shape-rendering:geometricPrecision; text-rendering:geometricPrecision; image-rendering:optimizeQuality; fill-rule:evenodd; clip-rule:evenodd" xmlns:xlink="http://www.w3.org/1999/xlink">
<g><path style="opacity:0.996" fill="#3c2086" d="M 153.5,-0.5 C 157.167,-0.5 160.833,-0.5 164.5,-0.5C 171.449,0.154153 177.782,2.48749 183.5,6.5C 154.776,45.7555 122.776,82.5889 87.5,117C 80.129,124.04 72.4623,130.706 64.5,137C 62.8588,138.129 61.8588,139.629 61.5,141.5C 51.6033,132.373 45.9366,121.04 44.5,107.5C 44.3367,105.143 44.5034,102.81 45,100.5C 77.6639,71.3585 106.831,39.3585 132.5,4.5C 139.523,2.43291 146.523,0.766247 153.5,-0.5 Z"/></g>
<g><path style="opacity:0.997" fill="#391f81" d="M 183.5,6.5 C 186.956,8.78327 190.29,11.2833 193.5,14C 196.608,15.7585 199.941,16.5919 203.5,16.5C 168.599,67.0809 127.932,112.748 81.5,153.5C 73.5443,151.523 66.8776,147.523 61.5,141.5C 61.8588,139.629 62.8588,138.129 64.5,137C 72.4623,130.706 80.129,124.04 87.5,117C 122.776,82.5889 154.776,45.7555 183.5,6.5 Z"/></g>
<g><path style="opacity:0.976" fill="#3f208a" d="M 132.5,4.5 C 106.831,39.3585 77.6639,71.3585 45,100.5C 44.5034,102.81 44.3367,105.143 44.5,107.5C 42.5788,87.4288 48.4121,69.7622 62,54.5C 81.8214,32.5183 105.321,15.8516 132.5,4.5 Z"/></g>
<g><path style="opacity:0.997" fill="#331e79" d="M 290.5,10.5 C 228.357,112.821 147.69,197.987 48.5,266C 47.552,266.483 46.552,266.649 45.5,266.5C 49.2077,240.026 58.2077,215.693 72.5,193.5C 72.8966,194.525 73.5632,194.692 74.5,194C 139.047,141.977 193.713,81.477 238.5,12.5C 242.777,13.7024 247.11,14.7024 251.5,15.5C 257.762,14.0745 263.762,11.9078 269.5,9C 276.609,8.17449 283.609,8.67449 290.5,10.5 Z"/></g>
<g><path style="opacity:0.997" fill="#371e7e" d="M 238.5,12.5 C 193.713,81.477 139.047,141.977 74.5,194C 73.5632,194.692 72.8966,194.525 72.5,193.5C 76.9807,185.173 82.4807,177.506 89,170.5C 90.6446,167.378 92.1446,164.212 93.5,161C 92.7433,159.488 91.7433,158.154 90.5,157C 87.3379,155.973 84.3379,154.806 81.5,153.5C 127.932,112.748 168.599,67.0809 203.5,16.5C 213.534,11.1604 224.2,9.32709 235.5,11C 236.737,11.2321 237.737,11.7321 238.5,12.5 Z"/></g>
<g><path style="opacity:0.998" fill="#311e75" d="M 290.5,10.5 C 291.833,11.1667 293.167,11.8333 294.5,12.5C 231.051,118.664 147.718,205.997 44.5,274.5C 44.4013,271.763 44.7347,269.096 45.5,266.5C 46.552,266.649 47.552,266.483 48.5,266C 147.69,197.987 228.357,112.821 290.5,10.5 Z"/></g>
<g><path style="opacity:0.998" fill="#2f1d73" d="M 294.5,12.5 C 306.521,17.1678 317.187,23.8345 326.5,32.5C 260.274,141.565 174.274,232.065 68.5,304C 57.9443,310.773 47.2776,317.273 36.5,323.5C 39.0803,307.021 41.747,290.687 44.5,274.5C 147.718,205.997 231.051,118.664 294.5,12.5 Z"/></g>
<g><path style="opacity:0.996" fill="#2c1c6d" d="M 326.5,32.5 C 334.279,39.9691 339.612,48.9691 342.5,59.5C 341.883,59.3893 341.383,59.056 341,58.5C 314.085,101.581 283.919,142.248 250.5,180.5C 245.101,180.309 239.767,180.809 234.5,182C 231.053,184.636 230.553,187.803 233,191.5C 235.921,198.341 239.088,205.007 242.5,211.5C 229.037,226.797 214.704,241.297 199.5,255C 181.263,270.417 163.263,285.917 145.5,301.5C 136.59,290.369 125.257,282.702 111.5,278.5C 110.167,279.5 110.167,280.5 111.5,281.5C 119.274,287.14 126.774,293.14 134,299.5C 136.157,301.817 137.657,304.484 138.5,307.5C 137.883,307.389 137.383,307.056 137,306.5C 100.443,335.203 61.6099,360.537 20.5,382.5C 26.9279,363.121 32.2613,343.454 36.5,323.5C 47.2776,317.273 57.9443,310.773 68.5,304C 174.274,232.065 260.274,141.565 326.5,32.5 Z"/></g>
<g><path style="opacity:0.992" fill="#2a1c6b" d="M 342.5,59.5 C 347.669,76.8448 348.836,94.5115 346,112.5C 345.252,116.914 342.752,118.414 338.5,117C 333.546,110.924 328.713,104.757 324,98.5C 324.045,102.471 325.212,106.138 327.5,109.5C 313.913,127.6 300.08,145.6 286,163.5C 276.968,174.027 267.801,184.361 258.5,194.5C 256.928,190.974 255.428,187.307 254,183.5C 252.855,182.364 251.688,181.364 250.5,180.5C 283.919,142.248 314.085,101.581 341,58.5C 341.383,59.056 341.883,59.3893 342.5,59.5 Z"/></g>
<g><path style="opacity:0.992" fill="#271b67" d="M 327.5,109.5 C 335.691,126.739 341.691,144.739 345.5,163.5C 326.596,188.076 306.929,212.076 286.5,235.5C 273.195,224.531 263.862,210.865 258.5,194.5C 267.801,184.361 276.968,174.027 286,163.5C 300.08,145.6 313.913,127.6 327.5,109.5 Z"/></g>
<g><path style="opacity:0.994" fill="#231a60" d="M 345.5,163.5 C 349.658,182.438 351.658,201.438 351.5,220.5C 332.506,241.828 313.506,263.161 294.5,284.5C 293.533,283.194 292.199,282.527 290.5,282.5C 290.167,284.5 289.833,286.5 289.5,288.5C 242.224,335.47 190.891,377.137 135.5,413.5C 136.032,404.673 137.532,396.007 140,387.5C 144.239,374.279 148.739,361.279 153.5,348.5C 153.238,349.978 153.571,351.311 154.5,352.5C 185.149,329.694 214.482,305.194 242.5,279C 254.368,266.965 266.368,255.131 278.5,243.5C 285.489,247.159 292.822,249.992 300.5,252C 305.222,252.777 309.889,252.61 314.5,251.5C 315.833,250.5 315.833,249.5 314.5,248.5C 303.806,246.816 294.473,242.483 286.5,235.5C 306.929,212.076 326.596,188.076 345.5,163.5 Z"/></g>
<g><path style="opacity:0.994" fill="#271b66" d="M 242.5,211.5 C 252.497,224.486 264.497,235.153 278.5,243.5C 266.368,255.131 254.368,266.965 242.5,279C 214.482,305.194 185.149,329.694 154.5,352.5C 153.571,351.311 153.238,349.978 153.5,348.5C 158.213,331.523 155.546,315.856 145.5,301.5C 163.263,285.917 181.263,270.417 199.5,255C 214.704,241.297 229.037,226.797 242.5,211.5 Z"/></g>
<g><path style="opacity:0.989" fill="#1e1959" d="M 351.5,220.5 C 354.51,226.023 358.51,230.856 363.5,235C 377.817,249.162 394.817,258.662 414.5,263.5C 414.5,265.167 414.5,266.833 414.5,268.5C 404.979,270.875 395.313,271.041 385.5,269C 373.203,265.898 361.203,262.231 349.5,258C 347.087,269.381 345.087,280.881 343.5,292.5C 342.778,292.082 342.278,291.416 342,290.5C 323.911,310.425 304.744,329.091 284.5,346.5C 290.548,326.263 293.881,305.597 294.5,284.5C 313.506,263.161 332.506,241.828 351.5,220.5 Z"/></g>
<g><path style="opacity:0.996" fill="#1f195b" d="M 289.5,288.5 C 286.509,317.811 277.175,344.811 261.5,369.5C 249.106,378.381 237.106,387.881 225.5,398C 210.167,409.333 194.833,420.667 179.5,432C 182.365,432.183 185.031,432.683 187.5,433.5C 171.443,433.938 155.443,433.438 139.5,432C 137.667,431.5 136.5,430.333 136,428.5C 135.501,423.511 135.334,418.511 135.5,413.5C 190.891,377.137 242.224,335.47 289.5,288.5 Z"/></g>
<g><path style="opacity:0.994" fill="#271b67" d="M 138.5,307.5 C 142.687,315.703 143.52,324.37 141,333.5C 136.198,348.103 130.032,362.103 122.5,375.5C 121.883,375.389 121.383,375.056 121,374.5C 90.9099,394.802 59.7433,413.469 27.5,430.5C 26.7025,430.957 26.3691,431.624 26.5,432.5C 19.4921,432.666 12.4921,432.5 5.5,432C 3.11327,431.436 1.11327,430.27 -0.5,428.5C -0.5,427.167 -0.5,425.833 -0.5,424.5C 7.02725,410.779 14.0273,396.779 20.5,382.5C 61.6099,360.537 100.443,335.203 137,306.5C 137.383,307.056 137.883,307.389 138.5,307.5 Z"/></g>
<g><path style="opacity:0.987" fill="#1b1853" d="M 343.5,292.5 C 334.82,339.286 313.487,379.12 279.5,412C 275.65,415.027 271.316,416.027 266.5,415C 260.193,407.135 258.36,398.302 261,388.5C 263.919,382.323 267.586,376.656 272,371.5C 276.74,363.354 280.907,355.02 284.5,346.5C 304.744,329.091 323.911,310.425 342,290.5C 342.278,291.416 342.778,292.082 343.5,292.5 Z"/></g>
<g><path style="opacity:0.986" fill="#17174d" d="M 374.5,381.5 C 371.062,383.759 367.729,386.259 364.5,389C 349.468,403.7 334.135,418.033 318.5,432C 315.749,432.943 313.083,433.776 310.5,434.5C 303.5,434.5 296.5,434.5 289.5,434.5C 284.278,431.991 283.112,427.991 286,422.5C 309.494,402.496 326.827,378.162 338,349.5C 341.458,337.792 345.292,326.292 349.5,315C 350.5,314.333 351.5,314.333 352.5,315C 354.377,317.251 355.877,319.751 357,322.5C 362.542,342.289 368.375,361.956 374.5,381.5 Z"/></g>
<g><path style="opacity:0.987" fill="#1c1855" d="M 261.5,369.5 C 254.542,380.083 249.208,391.416 245.5,403.5C 247.256,409.446 249.756,415.112 253,420.5C 254.097,429.235 250.263,433.902 241.5,434.5C 238.167,434.5 234.833,434.5 231.5,434.5C 217.01,433.504 202.343,433.171 187.5,433.5C 185.031,432.683 182.365,432.183 179.5,432C 194.833,420.667 210.167,409.333 225.5,398C 237.106,387.881 249.106,378.381 261.5,369.5 Z"/></g>
<g><path style="opacity:0.985" fill="#241a61" d="M 122.5,375.5 C 115.004,391.806 109.504,408.806 106,426.5C 102.689,431.781 97.8556,434.114 91.5,433.5C 69.846,432.568 48.1793,432.235 26.5,432.5C 26.3691,431.624 26.7025,430.957 27.5,430.5C 59.7433,413.469 90.9099,394.802 121,374.5C 121.383,375.056 121.883,375.389 122.5,375.5 Z"/></g>
<g><path style="opacity:0.985" fill="#131648" d="M 374.5,381.5 C 375.986,385.812 377.486,390.146 379,394.5C 384.246,403.825 389.079,413.325 393.5,423C 392.532,428.463 389.532,432.297 384.5,434.5C 359.833,434.5 335.167,434.5 310.5,434.5C 313.083,433.776 315.749,432.943 318.5,432C 334.135,418.033 349.468,403.7 364.5,389C 367.729,386.259 371.062,383.759 374.5,381.5 Z"/></g>
</svg>
