<svg xmlns="http://www.w3.org/2000/svg" xmlns:xlink="http://www.w3.org/1999/xlink" viewBox="0 0 81 81" fill="#fff" fill-rule="evenodd" stroke="#000" stroke-linecap="round" stroke-linejoin="round"><use xlink:href="#A" x=".5" y=".5"/><symbol id="A" overflow="visible"><path d="M80 40.08c0-8.978-3.04-17.635-8.64-24.7h0l-.32-.32c-.16-.16-.16-.32-.32-.48l-2.56-2.726C60.64 4.168 50.72 0 40 0h-.32C29.12.16 19.36 4.168 11.84 11.703h0L9.12 14.6c-.16.16-.16.32-.32.48l-.32.16C3.04 22.285 0 31.102 0 40.08s3.04 17.635 8.64 24.7h0l.32.32c.16.16.16.32.32.48l2.56 2.725C19.36 75.832 29.12 80 39.68 80H40c10.56 0 20.64-4.168 28.16-11.703h0l2.56-2.886c.16-.16.16-.32.32-.48l.32-.32C76.96 57.878 80 49.06 80 40.08zM63.84 13.948c-.16 0-.32.16-.48.16-.32.16-.64.32-.8.32-.64.32-1.44.48-2.24.802-.16 0-.32.16-.48.16-.96.32-1.76.48-2.72.802h0c-.16 0-.48.16-.64.16-1.44-3.848-3.2-7.214-5.28-9.78 4.64 1.443 8.96 4.008 12.64 7.375zm-24.16-9.3h0c4.48 0 8.96 4.65 12.16 12.665-3.68.64-7.68.962-11.84.962s-8.32-.32-12.16-.962C30.88 9.46 35.36 4.8 39.68 4.65zM28.32 6.734c-1.92 2.565-3.68 5.772-5.12 9.62h-.32c-.96-.32-1.92-.48-2.72-.802-.16 0-.32-.16-.48-.16-.64-.32-1.44-.64-2.08-.962-.32-.16-.48-.16-.8-.32-.16-.16-.32-.16-.64-.32 3.68-3.046 7.68-5.6 12.16-7.054zm-12.16 59.48c.16 0 .32-.16.48-.16.32-.16.48-.16.8-.32.64-.32 1.44-.48 2.24-.802.16 0 .32-.16.48-.16.96-.32 1.76-.48 2.72-.802h.32c1.44 3.688 3.2 7.054 5.12 9.62-4.48-1.603-8.64-4.168-12.16-7.375zm23.68 9.3h0c-4.48-.16-8.96-4.65-12-12.505 3.84-.64 8-.962 12.16-.962s8 .32 11.84.962c-3.04 7.856-7.68 12.505-12 12.505zM51.2 73.6c2.08-2.565 3.84-5.932 5.28-9.78.16 0 .48.16.64.16h0c.96.32 1.92.48 2.72.802.16 0 .32.16.48.16.8.32 1.44.48 2.24.802.32.16.48.16.8.32.16 0 .32.16.64.32-3.84 3.207-8.16 5.772-12.8 7.215zm16.16-11.062h0c-.48 0-.8-.16-1.28-.32s-1.12-.48-1.6-.64c-.16 0-.32-.16-.48-.16-1.92-.802-4-1.282-6.08-1.924.48-1.924.96-3.848 1.28-5.772h-4.8c-.32 1.764-.64 3.367-1.12 4.8C49.12 57.7 44.64 57.4 40 57.4c-4.8 0-9.28.48-13.6 1.283-.48-1.603-.8-3.206-1.12-4.97h-4.8c.32 2.084.8 4.008 1.28 5.932-1.92.48-3.84 1.122-5.6 1.763-.16.16-.48.16-.64.32-.48.16-1.12.48-1.6.64-.32 0-.8.16-1.12.32h0C8 56.914 5.28 49.7 4.8 42.325h4v-4.65h-4c.48-7.375 3.2-14.43 7.84-20.04l.16-.16c.32.16.8.32 1.12.48.64.32 1.12.48 1.76.802.16 0 .32.16.48.16 1.76.64 3.68 1.283 5.76 1.764-.48 1.764-.8 3.527-1.12 5.3h4.8l.96-4.33c4.32.802 8.96 1.282 13.6 1.282s9.12-.48 13.28-1.122c.32 1.283.64 2.725.96 4.33h4.8c-.32-1.763-.64-3.527-1.12-5.3 2.08-.48 4-1.122 5.92-1.924.16 0 .48-.16.64-.16.64-.16 1.12-.48 1.76-.64.32-.16.8-.32 1.12-.48h0c4.64 5.772 7.52 12.826 8 20.2h-4.8v4.65h4.8c-.8 7.214-3.52 14.43-8.16 20.04zM29.92 39.76c0 1.924-.32 3.527-.8 4.8s-1.28 2.405-2.08 3.367c-.96.802-2.08 1.443-3.36 1.924-1.28.32-2.88.64-4.8.64h-4.96c-.32 0-.64-.16-.96-.32s-.16-.64-.16-1.122V30.94c0-.48.16-.802.32-.962s.48-.32.96-.32h5.28c1.92 0 3.36.16 4.64.64s2.4 1.122 3.2 1.924 1.6 1.924 2.08 3.206c.32 1.282.64 2.725.64 4.33zm-4.32.16c0-.962-.16-1.924-.32-2.725s-.64-1.603-1.12-2.245-1.12-1.122-1.92-1.443-1.76-.48-3.2-.48h-2.08v14.108h2.24c1.12 0 2.08-.16 2.88-.48s1.44-.802 1.92-1.283c.48-.64.96-1.282 1.12-2.244.32-.962.48-2.084.48-3.206zm24.8 8.977c0 .32 0 .48-.16.64s-.16.32-.32.48-.32.16-.48.32c-.16 0-.32.16-.64.16h-1.76c-.32 0-.64 0-.96-.16-.32 0-.48-.16-.8-.48-.16-.16-.48-.48-.64-.802s-.48-.802-.64-1.283l-5.12-9.62c-.32-.64-.64-1.122-.96-1.924-.32-.64-.64-1.283-.8-1.924h0c0 .802 0 1.603.16 2.244V49.86c0 .16 0 .16-.16.32 0 .16-.16.16-.32.16s-.32.16-.64.16h-1.92c-.32 0-.48 0-.64-.16-.16 0-.16-.16-.32-.16V31.262c0-.48.16-.802.48-1.122s.64-.32 1.12-.32h2.24c.48 0 .8 0 .96.16.32 0 .48.16.8.32.16.16.48.32.64.64a9.18 9.18 0 0 0 .64 1.122l4 7.535c.16.48.48.962.64 1.282.16.48.48.962.64 1.283.16.48.48.802.64 1.283s.32.802.64 1.283h0V30.3c0-.16 0-.16.16-.32 0-.16.16-.16.32-.16s.32-.16.64-.16h1.92c.32 0 .48 0 .64.16.16 0 .16.16.32.16v18.918h-.32zm16.8-4.65c0 1.122-.16 2.084-.64 2.886a10.27 10.27 0 0 1-1.6 2.084c-.64.48-1.44.962-2.4 1.282s-1.92.48-3.04.48c-.64 0-1.44 0-1.92-.16l-1.6-.48c-.48-.16-.8-.32-1.12-.48s-.48-.32-.64-.48-.16-.32-.32-.64c0-.32-.16-.64-.16-1.122v-.802c0-.16 0-.48.16-.48 0-.16.16-.16.16-.32 0 0 .16-.16.32-.16s.32.16.64.32.64.32 1.12.64c.48.16.96.48 1.6.64s1.28.32 2.08.32c.48 0 .96 0 1.44-.16s.8-.32.96-.48c.32-.16.48-.48.64-.802s.16-.64.16-1.122-.16-.802-.32-1.283l-.96-.962c-.48-.32-.8-.48-1.44-.802-.48-.16-1.12-.48-1.6-.802s-1.12-.48-1.6-.802-.96-.64-1.44-1.122-.8-.962-.96-1.603c-.32-.64-.32-1.283-.32-2.245s.16-1.924.48-2.565c.32-.802.8-1.443 1.44-1.924s1.28-.802 2.24-1.122c.8-.32 1.76-.32 2.72-.32.48 0 .96 0 1.44.16.48 0 .96.16 1.44.32s.8.32 1.12.48.48.32.64.32c.16.16.16.16.16.32 0 0 0 .16.16.32v2.405c0 .16-.16.16-.16.32 0 0-.16.16-.32.16s-.32 0-.48-.16l-.96-.48c-.32-.16-.8-.32-1.28-.48s-.96-.16-1.6-.16c-.48 0-.8 0-1.12.16s-.64.32-.8.48-.32.48-.48.64c-.16.32-.16.64-.16.802 0 .48.16.802.32 1.122l.96.962c.48.32.96.48 1.44.802.48.16 1.12.48 1.6.802s1.12.48 1.6.802.96.64 1.44 1.122.8.962.96 1.603c-.16.16 0 .802 0 1.764z" fill="#0078d7" stroke="none"/></symbol></svg>