<?xml version="1.0" standalone="no"?>
<!DOCTYPE svg PUBLIC "-//W3C//DTD SVG 20010904//EN"
 "http://www.w3.org/TR/2001/REC-SVG-20010904/DTD/svg10.dtd">
<svg version="1.0" xmlns="http://www.w3.org/2000/svg"
 width="307.000000pt" height="164.000000pt" viewBox="0 0 307.000000 164.000000"
 preserveAspectRatio="xMidYMid meet">

<g transform="translate(0.000000,164.000000) scale(0.100000,-0.100000)"
fill="#000000" stroke="none">
<path d="M201 1231 c-105 -220 -191 -405 -191 -411 0 -6 86 -191 191 -411
l192 -399 1142 0 1142 0 73 153 c40 83 115 239 166 345 51 106 105 219 120
252 l27 60 -26 57 c-14 32 -101 213 -192 403 l-165 345 -1144 3 -1143 2 -192
-399z m519 -276 l0 -95 110 0 110 0 0 95 0 95 55 0 55 0 0 -245 0 -245 -55 0
-55 0 0 100 0 100 -110 0 -110 0 0 -100 0 -100 -60 0 -60 0 0 245 0 245 60 0
60 0 0 -95z m820 50 l0 -44 -77 -3 -78 -3 -3 -197 -2 -198 -55 0 -55 0 0 200
0 200 -80 0 -80 0 0 45 0 45 215 0 215 0 0 -45z m440 0 l0 -45 -80 0 -80 0 0
-200 0 -200 -55 0 -55 0 -2 198 -3 197 -77 3 -78 3 0 44 0 45 215 0 215 0 0
-45z m390 18 c66 -35 90 -75 90 -154 0 -111 -73 -168 -221 -172 l-84 -2 -3
-67 -3 -68 -54 0 -55 0 0 245 0 245 138 0 c131 0 141 -1 192 -27z"/>
<path d="M2150 875 l0 -85 63 0 c71 0 107 15 124 51 32 66 -26 119 -129 119
l-58 0 0 -85z"/>
</g>
</svg>
