<svg xmlns="http://www.w3.org/2000/svg" viewBox="0 0 64 64" aria-labelledby="title"
aria-describedby="desc" role="img" xmlns:xlink="http://www.w3.org/1999/xlink">
  <title>Openid</title>
  <desc>A line styled icon from Orion Icon Library.</desc>
  <path data-name="layer2"
  d="M29.281 19.813C14.656 21.594 2 30.084 2 39.647c0 9.937 11.813 18.094 27.281 19.5v-5.719C18.875 52.116 11.094 46.4 11.094 39.647m0 0c0-6.469 8.625-12.147 18.188-13.741m9.093.094l1.594.147a28.171 28.171 0 0 1 9.392 3.245l-4.892 2.755L62 35.991l-1.219-13.032-4.7 2.645a49.477 49.477 0 0 0-17.709-5.792"
  fill="none" stroke="#bbb" stroke-linecap="round" stroke-miterlimit="10"
  stroke-width="2" stroke-linejoin="round"></path>
  <path data-name="layer1" fill="none" stroke="#bbb" stroke-linecap="round"
  stroke-miterlimit="10" stroke-width="2" d="M29.281 7.959v51.094l9.094-4.219V3.553l-9.094 4.406z"
  stroke-linejoin="round"></path>
</svg>