<svg id="Layer_1" data-name="Layer 1" xmlns="http://www.w3.org/2000/svg" viewBox="0 0 190.08 186.14"><defs><style>.cls-1{fill:#ec4422;}.cls-2{fill:#f4d112;}.cls-3{fill:#eb187d;}.cls-4{fill:#0e363c;}.cls-5{fill:#4db9cd;}.cls-6{fill:#2b2e5b;}.cls-7{fill:#0c1414;}.cls-8{isolation:isolate;}.cls-9{fill:#fff;}</style></defs><path class="cls-1" d="M104.07,143.79l-9-9.06-9,9.06a29,29,0,0,1-15.23,8.09,29.49,29.49,0,0,0,48.47,0,29.07,29.07,0,0,1-15.1-8A.8.8,0,0,1,104.07,143.79Z"/><path class="cls-2" d="M86.06,42.35l9,9.06,9-9.06a29,29,0,0,1,15.23-8.09,29.49,29.49,0,0,0-48.47,0,29.07,29.07,0,0,1,15.1,8Z"/><path class="cls-3" d="M65.57,63.57V51.07a29.44,29.44,0,0,1,5.26-16.82,29.17,29.17,0,0,0-26.16,8.1l0,0a29.47,29.47,0,0,0-8.07,26.22,29.4,29.4,0,0,1,16.51-5Z"/><path class="cls-4" d="M137.07,122.57h-12.5v12.5a29.35,29.35,0,0,1-5.27,16.82,29.17,29.17,0,0,0,26.16-8.1l0,0a29.44,29.44,0,0,0,8.16-25.67A26.32,26.32,0,0,1,137.07,122.57Z"/><path class="cls-2" d="M124.57,122.57H107.15L95.07,134.73l9,9.06a.8.8,0,0,0,.13.13,29.07,29.07,0,0,0,15.1,8,29.35,29.35,0,0,0,5.27-16.82Z"/><path class="cls-1" d="M65.57,63.57H83L95.07,51.41l-9-9.06-.13-.13a29.07,29.07,0,0,0-15.1-8,29.44,29.44,0,0,0-5.26,16.82Z"/><path class="cls-5" d="M124.57,63.57h12.5a30.55,30.55,0,0,1,16.52,4.9,29.46,29.46,0,0,0-8.09-26.08l0,0a.8.8,0,0,1-.13-.13,29.14,29.14,0,0,0-26-8,29.32,29.32,0,0,1,5.27,16.81Z"/><path class="cls-6" d="M65.57,122.57H53.07a29.4,29.4,0,0,1-16.51-5,29.47,29.47,0,0,0,8.07,26.22l0,0,.13.13a29.12,29.12,0,0,0,26,8,29.31,29.31,0,0,1-5.26-16.81Z"/><path class="cls-6" d="M95.07,51.41l12.08,12.16h17.42V51.07a29.32,29.32,0,0,0-5.27-16.81,29,29,0,0,0-15.23,8.09Z"/><path class="cls-4" d="M95.07,134.73,83,122.57H65.57v12.5a29.31,29.31,0,0,0,5.26,16.81,29,29,0,0,0,15.23-8.09Z"/><polygon class="cls-3" points="95.06 51.41 82.98 63.57 107.15 63.57 95.06 51.41"/><polygon class="cls-6" points="95.06 134.73 107.15 122.57 82.98 122.57 95.06 134.73"/><path class="cls-7" d="M163.59,68.47a30.55,30.55,0,0,0-16.52-4.9h-104a29.5,29.5,0,1,0,0,59h104a26.32,26.32,0,0,0,16.59-4.49c7.27-5,12.73-13.77,12.91-25A28,28,0,0,0,163.59,68.47Z"/><g class="cls-8"><path class="cls-9" d="M31.34,93.48A11.57,11.57,0,0,1,43.15,81.61a11.63,11.63,0,1,1,0,23.26A11.55,11.55,0,0,1,31.34,93.51Zm5.72-.27c0,3.42,2.33,6.63,6.18,6.63,4,0,6-3.69,6-6.57s-2-6.63-6.08-6.63S37.06,90,37.06,93.18Z"/><path class="cls-9" d="M65.76,87.06H61.34V82H75.88v5h-4.4v17.38H65.76Z"/><path class="cls-9" d="M82.2,93.48A11.83,11.83,0,1,1,94,104.87,11.57,11.57,0,0,1,82.2,93.48Zm5.73-.27c0,3.42,2.33,6.63,6.17,6.63,4.06,0,6-3.69,6-6.57s-2-6.63-6.09-6.63c-4,0-6.11,3.39-6.11,6.54Z"/><path class="cls-9" d="M114.15,104.44V82h7.66L126,96.48,130.1,82h7.7v22.4h-5.27l.18-16.77-4.85,16.77h-3.78l-4.85-16.77.19,16.77Z"/></g><g class="cls-8"><path class="cls-9" d="M147.86,82h5.72v22.4h-5.72Z"/></g></svg>