<?xml version="1.0" encoding="UTF-8"?>
<svg xmlns="http://www.w3.org/2000/svg" xmlns:xlink="http://www.w3.org/1999/xlink" width="195pt" height="191pt" viewBox="0 0 195 191" version="1.1">
<g id="surface1">
<path style=" stroke:none;fill-rule:nonzero;fill:rgb(92.54902%,26.666667%,13.333333%);fill-opacity:1;" d="M 106.761719 147.542969 L 97.53125 138.246094 L 88.300781 147.542969 C 84.054688 151.832031 78.609375 154.726562 72.683594 155.84375 C 78.332031 164 87.617188 168.863281 97.535156 168.863281 C 107.453125 168.863281 116.738281 164 122.390625 155.84375 C 116.523438 154.722656 111.128906 151.863281 106.902344 147.636719 C 106.851562 147.609375 106.804688 147.578125 106.761719 147.542969 Z M 106.761719 147.542969 "/>
<path style=" stroke:none;fill-rule:nonzero;fill:rgb(95.686275%,81.960784%,7.058824%);fill-opacity:1;" d="M 88.289062 43.457031 L 97.519531 52.753906 L 106.75 43.457031 C 110.996094 39.167969 116.441406 36.273438 122.371094 35.15625 C 116.71875 27 107.433594 22.136719 97.515625 22.136719 C 87.597656 22.136719 78.3125 27 72.660156 35.15625 C 78.527344 36.277344 83.921875 39.136719 88.148438 43.363281 Z M 88.289062 43.457031 "/>
<path style=" stroke:none;fill-rule:nonzero;fill:rgb(92.156863%,9.411765%,49.019608%);fill-opacity:1;" d="M 67.277344 65.230469 L 67.277344 52.402344 C 67.273438 46.234375 69.152344 40.210938 72.671875 35.144531 C 62.902344 33.28125 52.851562 36.394531 45.84375 43.457031 C 38.828125 50.515625 35.730469 60.574219 37.566406 70.359375 C 42.570312 66.996094 48.46875 65.207031 54.5 65.230469 Z M 67.277344 65.230469 "/>
<path style=" stroke:none;fill-rule:nonzero;fill:rgb(5.490196%,21.176471%,23.529412%);fill-opacity:1;" d="M 140.605469 125.769531 L 127.785156 125.769531 L 127.785156 138.597656 C 127.792969 144.769531 125.90625 150.792969 122.378906 155.855469 C 132.148438 157.71875 142.203125 154.605469 149.207031 147.542969 C 156.082031 140.628906 159.199219 130.820312 157.578125 121.203125 C 152.585938 124.578125 146.613281 126.183594 140.605469 125.769531 Z M 140.605469 125.769531 "/>
<path style=" stroke:none;fill-rule:nonzero;fill:rgb(95.686275%,81.960784%,7.058824%);fill-opacity:1;" d="M 127.785156 125.769531 L 109.917969 125.769531 L 97.53125 138.246094 L 106.761719 147.542969 C 106.800781 147.59375 106.84375 147.636719 106.894531 147.675781 C 111.117188 151.90625 116.511719 154.765625 122.378906 155.886719 C 125.90625 150.824219 127.792969 144.796875 127.785156 138.628906 Z M 127.785156 125.769531 "/>
<path style=" stroke:none;fill-rule:nonzero;fill:rgb(92.54902%,26.666667%,13.333333%);fill-opacity:1;" d="M 67.277344 65.230469 L 85.152344 65.230469 L 97.53125 52.753906 L 88.300781 43.457031 L 88.167969 43.324219 C 83.945312 39.09375 78.550781 36.234375 72.683594 35.113281 C 69.164062 40.179688 67.28125 46.203125 67.289062 52.371094 Z M 67.277344 65.230469 "/>
<path style=" stroke:none;fill-rule:nonzero;fill:rgb(30.196078%,72.54902%,80.392157%);fill-opacity:1;" d="M 127.785156 65.230469 L 140.605469 65.230469 C 146.617188 65.246094 152.496094 66.988281 157.546875 70.257812 C 159.328125 60.515625 156.230469 50.519531 149.25 43.496094 C 149.199219 43.457031 149.15625 43.414062 149.117188 43.363281 C 142.128906 36.390625 132.148438 33.316406 122.453125 35.15625 C 125.976562 40.214844 127.863281 46.234375 127.855469 52.402344 Z M 127.785156 65.230469 "/>
<path style=" stroke:none;fill-rule:nonzero;fill:rgb(16.862745%,18.039216%,35.686275%);fill-opacity:1;" d="M 67.277344 125.769531 L 54.457031 125.769531 C 48.429688 125.792969 42.53125 124.003906 37.527344 120.640625 C 35.691406 130.425781 38.785156 140.484375 45.800781 147.542969 L 45.9375 147.675781 C 52.921875 154.65625 62.902344 157.726562 72.601562 155.886719 C 69.078125 150.828125 67.195312 144.804688 67.207031 138.636719 Z M 67.277344 125.769531 "/>
<path style=" stroke:none;fill-rule:nonzero;fill:rgb(16.862745%,18.039216%,35.686275%);fill-opacity:1;" d="M 97.53125 52.753906 L 109.917969 65.230469 L 127.785156 65.230469 L 127.785156 52.402344 C 127.792969 46.234375 125.90625 40.214844 122.378906 35.15625 C 116.453125 36.273438 111.003906 39.167969 106.761719 43.457031 Z M 97.53125 52.753906 "/>
<path style=" stroke:none;fill-rule:nonzero;fill:rgb(5.490196%,21.176471%,23.529412%);fill-opacity:1;" d="M 97.53125 138.246094 L 85.152344 125.769531 L 67.277344 125.769531 L 67.277344 138.597656 C 67.265625 144.761719 69.148438 150.785156 72.671875 155.84375 C 78.597656 154.726562 84.046875 151.832031 88.289062 147.542969 Z M 97.53125 138.246094 "/>
<path style=" stroke:none;fill-rule:nonzero;fill:rgb(92.156863%,9.411765%,49.019608%);fill-opacity:1;" d="M 97.519531 52.753906 L 85.132812 65.230469 L 109.917969 65.230469 Z M 97.519531 52.753906 "/>
<path style=" stroke:none;fill-rule:nonzero;fill:rgb(16.862745%,18.039216%,35.686275%);fill-opacity:1;" d="M 97.519531 138.246094 L 109.917969 125.769531 L 85.132812 125.769531 Z M 97.519531 138.246094 "/>
<path style=" stroke:none;fill-rule:nonzero;fill:rgb(4.705882%,7.843137%,7.843137%);fill-opacity:1;" d="M 167.800781 70.257812 C 162.753906 66.988281 156.871094 65.246094 150.859375 65.230469 L 44.203125 65.230469 C 27.492188 65.230469 13.949219 78.78125 13.949219 95.5 C 13.949219 112.21875 27.492188 125.769531 44.203125 125.769531 L 150.859375 125.769531 C 156.886719 126.183594 162.875 124.558594 167.871094 121.164062 C 175.328125 116.03125 180.929688 107.035156 181.113281 95.511719 C 181.464844 85.328125 176.398438 75.71875 167.800781 70.257812 Z M 167.800781 70.257812 "/>
<path style=" stroke:none;fill-rule:nonzero;fill:rgb(100%,100%,100%);fill-opacity:1;" d="M 32.171875 95.921875 C 32.089844 92.675781 33.335938 89.539062 35.621094 87.238281 C 37.910156 84.9375 41.042969 83.671875 44.285156 83.742188 C 50.871094 83.742188 56.210938 89.082031 56.210938 95.675781 C 56.210938 102.265625 50.871094 107.609375 44.285156 107.609375 C 41.128906 107.679688 38.078125 106.488281 35.804688 104.300781 C 33.53125 102.113281 32.222656 99.109375 32.171875 95.953125 Z M 38.039062 95.644531 C 38.039062 99.152344 40.429688 102.445312 44.375 102.445312 C 48.480469 102.445312 50.53125 98.660156 50.53125 95.707031 C 50.53125 92.75 48.480469 88.902344 44.292969 88.902344 C 40.109375 88.902344 38.039062 92.351562 38.039062 95.613281 Z M 38.039062 95.644531 "/>
<path style=" stroke:none;fill-rule:nonzero;fill:rgb(100%,100%,100%);fill-opacity:1;" d="M 67.472656 89.332031 L 62.9375 89.332031 L 62.9375 84.140625 L 77.851562 84.140625 L 77.851562 89.273438 L 73.339844 89.273438 L 73.339844 107.105469 L 67.472656 107.105469 Z M 67.472656 89.332031 "/>
<path style=" stroke:none;fill-rule:nonzero;fill:rgb(100%,100%,100%);fill-opacity:1;" d="M 84.332031 95.921875 C 84.148438 90.972656 86.988281 86.40625 91.507812 84.386719 C 96.027344 82.367188 101.320312 83.296875 104.882812 86.734375 C 108.441406 90.175781 109.558594 95.433594 107.699219 100.027344 C 105.84375 104.617188 101.382812 107.617188 96.433594 107.609375 C 93.277344 107.671875 90.226562 106.472656 87.957031 104.28125 C 85.683594 102.085938 84.378906 99.078125 84.332031 95.921875 Z M 90.207031 95.644531 C 90.207031 99.152344 92.597656 102.445312 96.535156 102.445312 C 100.699219 102.445312 102.6875 98.660156 102.6875 95.707031 C 102.6875 92.75 100.636719 88.902344 96.445312 88.902344 C 92.339844 88.902344 90.175781 92.378906 90.175781 95.613281 Z M 90.207031 95.644531 "/>
<path style=" stroke:none;fill-rule:nonzero;fill:rgb(100%,100%,100%);fill-opacity:1;" d="M 117.097656 107.167969 L 117.097656 84.140625 L 124.953125 84.140625 L 129.25 99 L 133.457031 84.140625 L 141.351562 84.140625 L 141.351562 107.125 L 135.949219 107.125 L 136.132812 89.917969 L 131.160156 107.125 L 127.28125 107.125 L 122.308594 89.917969 L 122.503906 107.125 Z M 117.097656 107.167969 "/>
<path style=" stroke:none;fill-rule:nonzero;fill:rgb(100%,100%,100%);fill-opacity:1;" d="M 151.667969 84.140625 L 157.535156 84.140625 L 157.535156 107.125 L 151.667969 107.125 Z M 151.667969 84.140625 "/>
</g>
</svg>
