<?xml version="1.0" encoding="UTF-8"?>
<!DOCTYPE svg PUBLIC "-//W3C//DTD SVG 1.1//EN" "http://www.w3.org/Graphics/SVG/1.1/DTD/svg11.dtd">
<svg xmlns="http://www.w3.org/2000/svg" version="1.1" width="122px" height="102px" style="shape-rendering:geometricPrecision; text-rendering:geometricPrecision; image-rendering:optimizeQuality; fill-rule:evenodd; clip-rule:evenodd" xmlns:xlink="http://www.w3.org/1999/xlink">
<g><path style="opacity:0.91" fill="#f05a27" d="M 12.5,-0.5 C 12.8333,-0.5 13.1667,-0.5 13.5,-0.5C 16.2971,9.89153 19.2971,20.2249 22.5,30.5C 18.4862,30.6655 14.4862,30.4988 10.5,30C 9.64332,29.3109 8.97665,28.4776 8.5,27.5C 10.1679,25.6583 11.1679,23.4917 11.5,21C 9.90721,14.9081 9.40721,8.74138 10,2.5C 11.045,1.62656 11.8783,0.626561 12.5,-0.5 Z"/></g>
<g><path style="opacity:0.973" fill="#f06026" d="M 13.5,-0.5 C 15.5,-0.5 17.5,-0.5 19.5,-0.5C 22.8333,9.83333 26.1667,20.1667 29.5,30.5C 27.1667,30.5 24.8333,30.5 22.5,30.5C 19.2971,20.2249 16.2971,9.89153 13.5,-0.5 Z"/></g>
<g><path style="opacity:0.977" fill="#f16724" d="M 19.5,-0.5 C 21.8333,-0.5 24.1667,-0.5 26.5,-0.5C 29.7029,9.77514 32.7029,20.1085 35.5,30.5C 33.5,30.5 31.5,30.5 29.5,30.5C 26.1667,20.1667 22.8333,9.83333 19.5,-0.5 Z"/></g>
<g><path style="opacity:0.976" fill="#f26d22" d="M 26.5,-0.5 C 28.5,-0.5 30.5,-0.5 32.5,-0.5C 35.7029,9.77514 38.7029,20.1085 41.5,30.5C 39.5,30.5 37.5,30.5 35.5,30.5C 32.7029,20.1085 29.7029,9.77514 26.5,-0.5 Z"/></g>
<g><path style="opacity:0.975" fill="#f27321" d="M 32.5,-0.5 C 34.8333,-0.5 37.1667,-0.5 39.5,-0.5C 42.2971,9.89153 45.2971,20.2249 48.5,30.5C 46.1667,30.5 43.8333,30.5 41.5,30.5C 38.7029,20.1085 35.7029,9.77514 32.5,-0.5 Z"/></g>
<g><path style="opacity:0.976" fill="#f37820" d="M 39.5,-0.5 C 40.5,-0.5 41.5,-0.5 42.5,-0.5C 45.8333,9.83333 49.1667,20.1667 52.5,30.5C 51.1667,30.5 49.8333,30.5 48.5,30.5C 45.2971,20.2249 42.2971,9.89153 39.5,-0.5 Z"/></g>
<g><path style="opacity:0.977" fill="#f37b1f" d="M 42.5,-0.5 C 43.5,-0.5 44.5,-0.5 45.5,-0.5C 48.8333,9.83333 52.1667,20.1667 55.5,30.5C 54.5,30.5 53.5,30.5 52.5,30.5C 49.1667,20.1667 45.8333,9.83333 42.5,-0.5 Z"/></g>
<g><path style="opacity:0.977" fill="#f4801d" d="M 45.5,-0.5 C 47.8333,-0.5 50.1667,-0.5 52.5,-0.5C 55.7029,9.77514 58.7029,20.1085 61.5,30.5C 59.5,30.5 57.5,30.5 55.5,30.5C 52.1667,20.1667 48.8333,9.83333 45.5,-0.5 Z"/></g>
<g><path style="opacity:0.976" fill="#f4861c" d="M 52.5,-0.5 C 54.5,-0.5 56.5,-0.5 58.5,-0.5C 61.9642,9.68863 64.9642,20.022 67.5,30.5C 65.5,30.5 63.5,30.5 61.5,30.5C 58.7029,20.1085 55.7029,9.77514 52.5,-0.5 Z"/></g>
<g><path style="opacity:0.974" fill="#f58c1a" d="M 58.5,-0.5 C 60.5,-0.5 62.5,-0.5 64.5,-0.5C 67.8333,9.83333 71.1667,20.1667 74.5,30.5C 72.1667,30.5 69.8333,30.5 67.5,30.5C 64.9642,20.022 61.9642,9.68863 58.5,-0.5 Z"/></g>
<g><path style="opacity:0.978" fill="#f59119" d="M 64.5,-0.5 C 66.1667,-0.5 67.8333,-0.5 69.5,-0.5C 70.4624,3.39481 71.7957,7.06147 73.5,10.5C 74.0569,15.1646 75.3902,19.4979 77.5,23.5C 77.6741,25.861 78.0074,28.1944 78.5,30.5C 77.1667,30.5 75.8333,30.5 74.5,30.5C 71.1667,20.1667 67.8333,9.83333 64.5,-0.5 Z"/></g>
<g><path style="opacity:0.982" fill="#f59517" d="M 69.5,-0.5 C 69.8333,-0.5 70.1667,-0.5 70.5,-0.5C 72.1056,2.98611 73.1056,6.65277 73.5,10.5C 71.7957,7.06147 70.4624,3.39481 69.5,-0.5 Z"/></g>
<g><path style="opacity:0.976" fill="#f69917" d="M 70.5,-0.5 C 73.1667,-0.5 75.8333,-0.5 78.5,-0.5C 81.2971,9.89153 84.2971,20.2249 87.5,30.5C 85.1667,30.5 82.8333,30.5 80.5,30.5C 79.6772,28.0128 78.6772,25.6794 77.5,23.5C 76.9431,18.8354 75.6098,14.5021 73.5,10.5C 73.1056,6.65277 72.1056,2.98611 70.5,-0.5 Z"/></g>
<g><path style="opacity:0.976" fill="#f79f15" d="M 78.5,-0.5 C 80.5,-0.5 82.5,-0.5 84.5,-0.5C 87.2971,9.89153 90.2971,20.2249 93.5,30.5C 91.5,30.5 89.5,30.5 87.5,30.5C 84.2971,20.2249 81.2971,9.89153 78.5,-0.5 Z"/></g>
<g><path style="opacity:0.976" fill="#f7a514" d="M 84.5,-0.5 C 86.5,-0.5 88.5,-0.5 90.5,-0.5C 93.2971,9.89153 96.2971,20.2249 99.5,30.5C 97.5,30.5 95.5,30.5 93.5,30.5C 90.2971,20.2249 87.2971,9.89153 84.5,-0.5 Z"/></g>
<g><path style="opacity:0.976" fill="#f8a912" d="M 90.5,-0.5 C 91.5,-0.5 92.5,-0.5 93.5,-0.5C 96.3445,9.87777 99.3445,20.2111 102.5,30.5C 101.5,30.5 100.5,30.5 99.5,30.5C 96.2971,20.2249 93.2971,9.89153 90.5,-0.5 Z"/></g>
<g><path style="opacity:0.976" fill="#f8ac11" d="M 93.5,-0.5 C 94.5,-0.5 95.5,-0.5 96.5,-0.5C 99.3445,9.87777 102.344,20.2111 105.5,30.5C 104.5,30.5 103.5,30.5 102.5,30.5C 99.3445,20.2111 96.3445,9.87777 93.5,-0.5 Z"/></g>
<g><path style="opacity:0.977" fill="#f8b110" d="M 96.5,-0.5 C 98.8333,-0.5 101.167,-0.5 103.5,-0.5C 106.703,9.77514 109.703,20.1085 112.5,30.5C 110.167,30.5 107.833,30.5 105.5,30.5C 102.344,20.2111 99.3445,9.87777 96.5,-0.5 Z"/></g>
<g><path style="opacity:0.97" fill="#f9b70f" d="M 103.5,-0.5 C 104.833,-0.5 106.167,-0.5 107.5,-0.5C 110.659,9.64307 113.992,19.6431 117.5,29.5C 116.081,30.4511 114.415,30.7845 112.5,30.5C 109.703,20.1085 106.703,9.77514 103.5,-0.5 Z"/></g>
<g><path style="opacity:0.989" fill="#faba0e" d="M 107.5,-0.5 C 108.167,-0.5 108.833,-0.5 109.5,-0.5C 112.807,9.39265 115.807,19.3926 118.5,29.5C 118.167,29.5 117.833,29.5 117.5,29.5C 113.992,19.6431 110.659,9.64307 107.5,-0.5 Z"/></g>
<g><path style="opacity:0.948" fill="#fabe0d" d="M 109.5,-0.5 C 110.833,-0.5 112.167,-0.5 113.5,-0.5C 115.139,0.472504 116.473,1.80584 117.5,3.5C 117.723,7.16211 118.723,10.4954 120.5,13.5C 120.328,14.4916 120.662,15.1583 121.5,15.5C 121.5,19.5 121.5,23.5 121.5,27.5C 120.5,28.1667 119.5,28.8333 118.5,29.5C 115.807,19.3926 112.807,9.39265 109.5,-0.5 Z"/></g>
<g><path style="opacity:1" fill="#fac20c" d="M 117.5,3.5 C 119.41,6.45246 120.41,9.7858 120.5,13.5C 118.723,10.4954 117.723,7.16211 117.5,3.5 Z"/></g>
<g><path style="opacity:1" fill="#f59517" d="M 73.5,10.5 C 75.6098,14.5021 76.9431,18.8354 77.5,23.5C 75.3902,19.4979 74.0569,15.1646 73.5,10.5 Z"/></g>
<g><path style="opacity:0.889" fill="#f59517" d="M 77.5,23.5 C 78.6772,25.6794 79.6772,28.0128 80.5,30.5C 79.8333,30.5 79.1667,30.5 78.5,30.5C 78.0074,28.1944 77.6741,25.861 77.5,23.5 Z"/></g>
<g><path style="opacity:0.712" fill="#ef5a27" d="M -0.5,29.5 C -0.5,28.1667 -0.5,26.8333 -0.5,25.5C 1.73752,24.4634 4.07085,24.2967 6.5,25C 7.83333,26.6667 7.83333,28.3333 6.5,30C 4.07085,30.7033 1.73752,30.5366 -0.5,29.5 Z"/></g>
<g><path style="opacity:0.939" fill="#f37820" d="M 53.5,33.5 C 56.6555,43.7889 59.6555,54.1222 62.5,64.5C 61.5,64.5 60.5,64.5 59.5,64.5C 58.3433,61.016 57.01,57.6827 55.5,54.5C 54.6718,49.3563 53.3385,44.3563 51.5,39.5C 50.962,37.8828 50.6287,36.2161 50.5,34.5C 51.391,33.8902 52.391,33.5569 53.5,33.5 Z"/></g>
<g><path style="opacity:0.98" fill="#f37b1f" d="M 53.5,33.5 C 54.5,33.5 55.5,33.5 56.5,33.5C 59.7029,43.7751 62.7029,54.1085 65.5,64.5C 64.5,64.5 63.5,64.5 62.5,64.5C 59.6555,54.1222 56.6555,43.7889 53.5,33.5 Z"/></g>
<g><path style="opacity:0.975" fill="#f4801d" d="M 56.5,33.5 C 58.8333,33.5 61.1667,33.5 63.5,33.5C 66.2971,43.8915 69.2971,54.2249 72.5,64.5C 70.1667,64.5 67.8333,64.5 65.5,64.5C 62.7029,54.1085 59.7029,43.7751 56.5,33.5 Z"/></g>
<g><path style="opacity:0.976" fill="#f4861c" d="M 63.5,33.5 C 65.5,33.5 67.5,33.5 69.5,33.5C 72.2971,43.8915 75.2971,54.2249 78.5,64.5C 76.5,64.5 74.5,64.5 72.5,64.5C 69.2971,54.2249 66.2971,43.8915 63.5,33.5 Z"/></g>
<g><path style="opacity:0.976" fill="#f58c1a" d="M 69.5,33.5 C 71.5,33.5 73.5,33.5 75.5,33.5C 78.2971,43.8915 81.2971,54.2249 84.5,64.5C 82.5,64.5 80.5,64.5 78.5,64.5C 75.2971,54.2249 72.2971,43.8915 69.5,33.5 Z"/></g>
<g><path style="opacity:0.951" fill="#f59119" d="M 75.5,33.5 C 77.9674,33.7549 79.9674,34.7549 81.5,36.5C 82.0569,41.1646 83.3902,45.4979 85.5,49.5C 86.9781,54.042 87.4781,58.7087 87,63.5C 86.3292,64.2524 85.4959,64.5858 84.5,64.5C 81.2971,54.2249 78.2971,43.8915 75.5,33.5 Z"/></g>
<g><path style="opacity:0.856" fill="#f16824" d="M 37.5,34.5 C 37.6287,36.2161 37.962,37.8828 38.5,39.5C 36.8333,39.5 35.1667,39.5 33.5,39.5C 33.5,37.8333 33.5,36.1667 33.5,34.5C 34.8333,34.5 36.1667,34.5 37.5,34.5 Z"/></g>
<g><path style="opacity:1" fill="#f26d22" d="M 37.5,34.5 C 39.5,34.5 41.5,34.5 43.5,34.5C 44.038,36.1172 44.3713,37.7839 44.5,39.5C 42.5,39.5 40.5,39.5 38.5,39.5C 37.962,37.8828 37.6287,36.2161 37.5,34.5 Z"/></g>
<g><path style="opacity:0.814" fill="#f27121" d="M 43.5,34.5 C 44.5,34.5 45.5,34.5 46.5,34.5C 46.9227,36.7812 46.256,38.4479 44.5,39.5C 44.3713,37.7839 44.038,36.1172 43.5,34.5 Z"/></g>
<g><path style="opacity:0.598" fill="#f37520" d="M 50.5,34.5 C 50.6287,36.2161 50.962,37.8828 51.5,39.5C 48.3296,38.2083 47.9962,36.5416 50.5,34.5 Z"/></g>
<g><path style="opacity:0.806" fill="#f69517" d="M 81.5,36.5 C 82.7899,37.0577 83.6232,38.0577 84,39.5C 84.6103,42.8273 85.1103,46.1606 85.5,49.5C 83.3902,45.4979 82.0569,41.1646 81.5,36.5 Z"/></g>
<g><path style="opacity:0.818" fill="#f27420" d="M 55.5,54.5 C 57.01,57.6827 58.3433,61.016 59.5,64.5C 57.2075,64.7564 55.0408,64.4231 53,63.5C 54.2735,60.8402 55.1068,57.8402 55.5,54.5 Z"/></g>
<g><path style="opacity:0.757" fill="#f16924" d="M 45.5,59.5 C 45.366,61.2915 45.6993,62.9582 46.5,64.5C 45.5,64.5 44.5,64.5 43.5,64.5C 43.0773,62.2188 43.744,60.5521 45.5,59.5 Z"/></g>
<g><path style="opacity:0.861" fill="#f26d22" d="M 45.5,59.5 C 47.1992,59.3398 48.8659,59.5065 50.5,60C 52.0093,63.6693 50.6759,65.1693 46.5,64.5C 45.6993,62.9582 45.366,61.2915 45.5,59.5 Z"/></g>
<g><path style="opacity:0.87" fill="#f27421" d="M 60.5,68.5 C 63.7029,78.7751 66.7029,89.1085 69.5,99.5C 67.5742,98.7577 65.7409,97.7577 64,96.5C 61.6966,90.0315 60.03,83.3648 59,76.5C 58.3333,75.1667 57.3333,74.1667 56,73.5C 54.8228,69.5082 56.3228,67.8416 60.5,68.5 Z"/></g>
<g><path style="opacity:0.973" fill="#f37820" d="M 60.5,68.5 C 61.8333,68.5 63.1667,68.5 64.5,68.5C 67.2971,78.8915 70.2971,89.2249 73.5,99.5C 72.1667,99.5 70.8333,99.5 69.5,99.5C 66.7029,89.1085 63.7029,78.7751 60.5,68.5 Z"/></g>
<g><path style="opacity:0.98" fill="#f37b1f" d="M 64.5,68.5 C 65.5,68.5 66.5,68.5 67.5,68.5C 70.2971,78.8915 73.2971,89.2249 76.5,99.5C 75.5,99.5 74.5,99.5 73.5,99.5C 70.2971,89.2249 67.2971,78.8915 64.5,68.5 Z"/></g>
<g><path style="opacity:0.977" fill="#f4801d" d="M 67.5,68.5 C 69.5,68.5 71.5,68.5 73.5,68.5C 76.8333,78.8333 80.1667,89.1667 83.5,99.5C 81.1667,99.5 78.8333,99.5 76.5,99.5C 73.2971,89.2249 70.2971,78.8915 67.5,68.5 Z"/></g>
<g><path style="opacity:0.972" fill="#f4861c" d="M 73.5,68.5 C 75.5,68.5 77.5,68.5 79.5,68.5C 82.8477,78.5841 86.181,88.5841 89.5,98.5C 87.7354,99.4614 85.7354,99.7947 83.5,99.5C 80.1667,89.1667 76.8333,78.8333 73.5,68.5 Z"/></g>
<g><path style="opacity:0.95" fill="#f58c1a" d="M 79.5,68.5 C 81.9496,68.298 84.283,68.6314 86.5,69.5C 88.1296,76.0507 90.1296,82.3841 92.5,88.5C 93.5366,90.7375 93.7033,93.0709 93,95.5C 92.5776,97.4257 91.4109,98.4257 89.5,98.5C 86.181,88.5841 82.8477,78.5841 79.5,68.5 Z"/></g>
<g><path style="opacity:0.707" fill="#f59019" d="M 86.5,69.5 C 88.1733,70.343 89.34,71.6763 90,73.5C 91.0513,78.4742 91.8846,83.4742 92.5,88.5C 90.1296,82.3841 88.1296,76.0507 86.5,69.5 Z"/></g>
</svg>
